<svg width="96" height="96" xmlns="http://www.w3.org/2000/svg" xmlns:xlink="http://www.w3.org/1999/xlink" xml:space="preserve" overflow="hidden"><g transform="translate(-11 -545)"><path d="M88 606.981 88.0039 570.988 30.001 570.988 30.001 606.998ZM32.001 572.988 86.0039 572.988 86 604.981 32.001 604.998Z"/><path d="M27.001 569.987C27.0023 568.883 27.897 567.988 29.001 567.987L89.0039 567.987C90.1079 567.988 91.0025 568.883 91.0039 569.987L91.0039 611 93.0039 611 93.0039 569.987C93.0016 567.778 91.2121 565.989 89.0039 565.987L29.001 565.987C26.7928 565.989 25.0033 567.778 25.001 569.987L25.001 611 27.001 611Z"/><path d="M64.0029 613.981 64.0029 615.981 54.002 615.981 54.002 613.981 13 613.981 13 615.98C13.0029 618.74 15.2396 620.977 18 620.981L100.004 620.981C102.765 620.978 105.002 618.741 105.005 615.98L105.005 613.981ZM100.004 618.981 18 618.981C16.344 618.979 15.0021 617.637 15 615.981L52.002 615.981C51.9651 617.049 52.8008 617.944 53.8685 617.981 53.913 617.982 53.9575 617.982 54.002 617.981L64.0029 617.981C65.0706 618.018 65.966 617.182 66.0029 616.115 66.0044 616.07 66.0044 616.026 66.0029 615.981L103.005 615.981C103.002 617.637 101.66 618.979 100.004 618.981Z"/><path d="M59 576C51.8203 576 46 581.82 46 589 46 596.18 51.8203 602 59 602 66.1797 602 72 596.18 72 589 71.9918 581.824 66.1763 576.008 59 576ZM69.9493 588 66.4309 588C66.2926 584.416 64.8002 581.019 62.2549 578.492 66.5041 579.817 69.5393 583.568 69.9493 588ZM58 579.226 58 588 53.5742 588C53.8281 584.229 55.5033 580.94 58 579.226ZM58 590 58 598.775C55.5061 597.058 53.83 593.758 53.575 590ZM60 598.774 60 590 64.425 590C64.17 593.754 62.4927 597.056 60 598.774ZM60 588 60 579.227C62.4924 580.945 64.17 584.246 64.425 588ZM55.7267 578.498C53.186 581.023 51.6999 584.42 51.5693 588L48.0507 588C48.46 583.575 51.4865 579.828 55.7267 578.498ZM48.0507 590 51.5691 590C51.7057 593.583 53.1969 596.981 55.7415 599.507 51.4941 598.18 48.4606 594.431 48.0507 590ZM62.2559 599.508C64.8007 596.981 66.2927 593.583 66.4309 590L69.9493 590C69.5393 594.432 66.5046 598.182 62.2559 599.508Z"/></g></svg>