<svg width="101" height="101" xmlns="http://www.w3.org/2000/svg" xmlns:xlink="http://www.w3.org/1999/xlink" xml:space="preserve" overflow="hidden"><defs><clipPath id="clip0"><rect x="991" y="1204" width="101" height="101"/></clipPath></defs><g clip-path="url(#clip0)" transform="translate(-991 -1204)"><path d="M1067.02 1292.77 1044.21 1276.05 1041.5 1274.06 1038.78 1276.05 1015.98 1292.77 1025.2 1265.13 1026.23 1262.03 1023.64 1260.04 1004.5 1245.32 1030.91 1245.32 1032.03 1242.34 1041.5 1217.07 1050.97 1242.34 1052.09 1245.32 1078.51 1245.32 1059.36 1260.04 1056.77 1262.03C1056.77 1262.03 1067.02 1292.77 1067.02 1292.77ZM1092 1240.73 1055.27 1240.73 1041.5 1204 1027.73 1240.73 991 1240.73 1020.84 1263.68 1007.07 1305 1041.5 1279.75 1075.93 1305 1062.16 1263.68C1062.16 1263.68 1092 1240.73 1092 1240.73Z" fill="#2B2B2B" fill-rule="evenodd"/></g></svg>