<svg width="96" height="96" xmlns="http://www.w3.org/2000/svg" xmlns:xlink="http://www.w3.org/1999/xlink" xml:space="preserve" overflow="hidden"><g transform="translate(-499 -232)"><path d="M515 269 530 269 530 276 537 269 543 269 547 276 551 269 557 269 564 276 564 269 580 269C582.209 269 584 267.209 584 265L584 244C584 241.791 582.209 240 580 240L515 240C512.791 240 511 241.791 511 244L511 265C511 267.209 512.791 269 515 269ZM513 244C513 242.895 513.895 242 515 242L580 242C581.105 242 582 242.895 582 244L582 265C582 266.105 581.105 267 580 267L562 267 562 271.172 558.414 267.586 557.828 267 549.839 267 549.264 268.008 547 271.969 544.737 268.008 544.161 267 536.172 267 535.586 267.586 532 271.172 532 267 515 267C513.895 267 513 266.105 513 265Z"/><path d="M521 249 568 249 568 251 521 251Z"/><path d="M521 254 574 254 574 256 521 256Z"/><path d="M521 259 558 259 558 261 521 261Z"/><path d="M561.262 288.74C561.263 293.014 564.728 296.477 569.002 296.476 573.276 296.475 576.739 293.01 576.738 288.736 576.737 284.463 573.273 281 569 281 564.726 281.001 561.261 284.466 561.262 288.74ZM574.738 288.74C574.737 291.909 572.167 294.477 568.998 294.476 565.829 294.475 563.261 291.905 563.262 288.736 563.263 285.568 565.832 283 569 283 572.168 283.004 574.735 285.572 574.738 288.74Z"/><path d="M519.262 288.945C519.263 293.219 522.728 296.682 527.002 296.681 531.276 296.68 534.739 293.215 534.738 288.941 534.737 284.668 531.273 281.205 527 281.205 522.726 281.206 519.261 284.671 519.262 288.945ZM532.738 288.945C532.737 292.114 530.167 294.682 526.998 294.681 523.829 294.68 521.261 292.11 521.262 288.941 521.263 285.773 523.832 283.205 527 283.205 530.168 283.209 532.735 285.777 532.738 288.945Z"/><path d="M583.133 302.619C580.86 300.866 578.255 299.591 575.475 298.873 573.377 298.228 571.195 297.897 569 297.892 566.812 297.927 564.639 298.256 562.538 298.869 559.788 299.668 557.196 300.934 554.875 302.612 554.724 302.734 554.58 302.864 554.443 303.002 554.643 303.058 554.843 303.102 555.049 303.162 555.657 303.335 556.239 303.527 556.81 303.728 558.741 302.445 560.853 301.458 563.076 300.8 565.002 300.238 566.994 299.935 569 299.9 571.005 299.906 572.997 300.209 574.913 300.8 577.438 301.446 579.806 302.596 581.875 304.182 582.562 304.714 582.975 305.525 583 306.394L583 312.794 585 312.794 585 306.394C584.976 304.919 584.291 303.533 583.133 302.619Z"/><path d="M539.058 303.8C539.701 303.558 540.346 303.339 540.989 303.156 541.126 303.119 541.253 303.093 541.389 303.056 541.305 302.979 541.224 302.899 541.134 302.828 538.861 301.074 536.256 299.799 533.476 299.08 531.378 298.436 529.195 298.105 527 298.1 524.812 298.136 522.639 298.464 520.538 299.076 517.788 299.875 515.195 301.141 512.875 302.82 511.714 303.734 511.025 305.122 511 306.6L511 313 513 313 513 306.6C513.019 305.744 513.417 304.94 514.088 304.408 516.209 302.888 518.572 301.735 521.076 301 523.002 300.438 524.994 300.135 527 300.1 529.005 300.107 530.997 300.41 532.913 301 535.103 301.586 537.179 302.532 539.058 303.8Z"/><path d="M562.133 308.825C559.86 307.071 557.255 305.796 554.475 305.077 552.377 304.434 550.195 304.104 548 304.1 545.812 304.136 543.639 304.464 541.538 305.076 538.788 305.875 536.195 307.141 533.875 308.82 532.714 309.734 532.025 311.122 532 312.6L532 319 534 319 534 312.6C534.019 311.744 534.417 310.94 535.088 310.408 537.209 308.888 539.572 307.735 542.076 307 544.002 306.438 545.994 306.135 548 306.1 550.005 306.107 551.997 306.41 553.913 307 556.438 307.646 558.806 308.797 560.875 310.382 561.564 310.915 561.977 311.729 562 312.6L562 319 564 319 564 312.6C563.977 311.125 563.291 309.739 562.133 308.825Z"/><path d="M540.262 294.945C540.263 299.219 543.728 302.682 548.002 302.681 552.276 302.68 555.739 299.215 555.738 294.941 555.737 290.668 552.273 287.205 548 287.205 543.726 287.206 540.261 290.671 540.262 294.945ZM553.738 294.945C553.737 298.114 551.167 300.682 547.998 300.681 544.829 300.68 542.261 298.11 542.262 294.941 542.263 291.773 544.832 289.205 548 289.205 551.168 289.209 553.735 291.777 553.738 294.945Z"/></g></svg>