<?xml version="1.0" encoding="UTF-8"?>
<svg id="Ebene_2" data-name="Ebene 2" xmlns="http://www.w3.org/2000/svg" viewBox="0 0 99.81 99.81">
  <defs>
    <style>
      .cls-1 {
        fill: #25bee0;
        fill-rule: evenodd;
        stroke-width: 0px;
      }
    </style>
  </defs>
  <g id="Ebene_1-2" data-name="Ebene 1">
    <path class="cls-1" d="M56.11,84.59l15.89-52.96h21.19l-37.08,52.96ZM49.91,89.52l-17.37-57.89h34.75l-17.37,57.89ZM6.62,31.62h21.19l15.89,52.96L6.62,31.62ZM30.41,3.95h9.06l-11.36,22.73H7.68L30.41,3.95ZM55.33,3.95l11.37,22.73h-33.58L44.48,3.95h10.85ZM69.4,3.95l22.73,22.73h-20.43L60.35,3.95h9.06ZM99.81,29.49c0-.5-.2-.96-.48-1.33l.03-.03-.14-.14c-.06-.06-.11-.11-.18-.17L72.14.91l-.04.02c-.41-.55-1.04-.93-1.78-.93H29.49c-.74,0-1.36.38-1.78.93l-.04-.02L.77,27.82c-.07.06-.12.11-.18.17l-.14.14.03.03c-.29.38-.48.83-.48,1.33,0,.54.22,1.02.53,1.4l-.03.03,47.63,68.05.03-.02c.42.51,1.03.86,1.74.86s1.32-.35,1.74-.86l.03.02L99.31,30.92l-.03-.03c.32-.39.53-.86.53-1.4"/>
  </g>
</svg>