<svg width="101" height="64" xmlns="http://www.w3.org/2000/svg" xmlns:xlink="http://www.w3.org/1999/xlink" xml:space="preserve" overflow="hidden"><defs><clipPath id="clip0"><rect x="1408" y="1155" width="101" height="64"/></clipPath></defs><g clip-path="url(#clip0)" transform="translate(-1408 -1155)"><path d="M1453.05 1191.23 1452.39 1192.84 1446.21 1192.84C1446.19 1192.92 1446.18 1193.04 1446.18 1193.19L1446.18 1193.77C1446.18 1194.21 1446.19 1194.47 1446.21 1194.55L1452.04 1194.55 1451.41 1196.14 1446.33 1196.14C1446.53 1197.49 1446.96 1198.56 1447.62 1199.33 1448.38 1200.29 1449.41 1200.76 1450.7 1200.76 1451.54 1200.76 1452.24 1200.63 1452.8 1200.36 1453.3 1200.11 1453.87 1199.69 1454.51 1199.1L1454.51 1201.9C1453.37 1202.63 1452.09 1203.01 1450.7 1203.01 1448.44 1203.01 1446.68 1202.32 1445.42 1200.94 1444.33 1199.75 1443.64 1198.15 1443.38 1196.14L1441.43 1196.14 1442.12 1194.55 1443.25 1194.55C1443.24 1194.43 1443.22 1194.31 1443.21 1194.17 1443.21 1194.04 1443.2 1193.9 1443.2 1193.75 1443.2 1193.63 1443.21 1193.49 1443.21 1193.34 1443.22 1193.19 1443.24 1193.03 1443.25 1192.84L1441.43 1192.84 1442.09 1191.23 1443.43 1191.23C1443.85 1189.3 1444.62 1187.77 1445.73 1186.65 1447.02 1185.36 1448.68 1184.72 1450.7 1184.72 1452.16 1184.72 1453.67 1185.23 1455.19 1186.27L1454.03 1188.56C1452.95 1187.49 1451.78 1186.95 1450.5 1186.95 1449.37 1186.95 1448.43 1187.4 1447.67 1188.29 1447.03 1189.08 1446.6 1190.05 1446.38 1191.23 1446.38 1191.23 1453.05 1191.23 1453.05 1191.23ZM1449.32 1177.86C1440.44 1177.86 1433.25 1185.02 1433.25 1193.86 1433.25 1202.7 1440.44 1209.86 1449.32 1209.86 1458.19 1209.86 1465.39 1202.7 1465.39 1193.86 1465.39 1185.02 1458.19 1177.86 1449.32 1177.86M1428.66 1177.86C1427.39 1177.86 1426.36 1178.88 1426.36 1180.14 1426.36 1181.41 1427.39 1182.43 1428.66 1182.43 1429.93 1182.43 1430.95 1181.41 1430.95 1180.14 1430.95 1178.88 1429.93 1177.86 1428.66 1177.86M1483.75 1177.86C1482.48 1177.86 1481.45 1176.83 1481.45 1175.57 1481.45 1174.31 1482.48 1173.28 1483.75 1173.28 1485.02 1173.28 1486.05 1174.31 1486.05 1175.57 1486.05 1176.83 1485.02 1177.86 1483.75 1177.86M1486.05 1205.71C1485.33 1205.45 1484.56 1205.28 1483.75 1205.28 1479.94 1205.28 1476.86 1208.36 1476.86 1212.14 1476.86 1212.95 1477.03 1213.71 1477.29 1214.43L1421.35 1214.43C1421.61 1213.71 1421.77 1212.95 1421.77 1212.14 1421.77 1208.36 1418.69 1205.28 1414.89 1205.28 1414.07 1205.28 1413.31 1205.45 1412.59 1205.71L1412.59 1182.01C1413.31 1182.27 1414.07 1182.43 1414.89 1182.43 1418.69 1182.43 1421.77 1179.36 1421.77 1175.57 1421.77 1174.77 1421.61 1174 1421.35 1173.28L1477.29 1173.28C1477.03 1174 1476.86 1174.77 1476.86 1175.57 1476.86 1179.36 1479.94 1182.43 1483.75 1182.43 1484.56 1182.43 1485.33 1182.27 1486.05 1182.01 1486.05 1182.01 1486.05 1205.71 1486.05 1205.71ZM1483.75 1214.43C1482.48 1214.43 1481.45 1213.41 1481.45 1212.14 1481.45 1210.88 1482.48 1209.86 1483.75 1209.86 1485.02 1209.86 1486.05 1210.88 1486.05 1212.14 1486.05 1213.41 1485.02 1214.43 1483.75 1214.43M1414.89 1214.43C1413.62 1214.43 1412.59 1213.41 1412.59 1212.14 1412.59 1210.88 1413.62 1209.86 1414.89 1209.86 1416.15 1209.86 1417.18 1210.88 1417.18 1212.14 1417.18 1213.41 1416.15 1214.43 1414.89 1214.43M1414.89 1173.28C1416.15 1173.28 1417.18 1174.31 1417.18 1175.57 1417.18 1176.83 1416.15 1177.86 1414.89 1177.86 1413.62 1177.86 1412.59 1176.83 1412.59 1175.57 1412.59 1174.31 1413.62 1173.28 1414.89 1173.28M1486.05 1168.72 1412.59 1168.72C1410.06 1168.72 1408 1170.76 1408 1173.28L1408 1214.43C1408 1216.96 1410.06 1219 1412.59 1219L1486.05 1219C1488.58 1219 1490.64 1216.96 1490.64 1214.43L1490.64 1173.28C1490.64 1170.76 1488.58 1168.72 1486.05 1168.72M1504.41 1155 1430.95 1155C1428.42 1155 1426.36 1157.05 1426.36 1159.57L1426.36 1161.86C1426.36 1163.12 1427.39 1164.14 1428.66 1164.14 1429.93 1164.14 1430.95 1163.12 1430.95 1161.86L1430.95 1159.57 1504.41 1159.57 1504.41 1200.72 1497.52 1200.72C1496.26 1200.72 1495.23 1201.74 1495.23 1203 1495.23 1204.26 1496.26 1205.28 1497.52 1205.28L1504.41 1205.28C1506.94 1205.28 1509 1203.24 1509 1200.72L1509 1159.57C1509 1157.05 1506.94 1155 1504.41 1155M1469.98 1205.28C1468.71 1205.28 1467.68 1206.31 1467.68 1207.57 1467.68 1208.83 1468.71 1209.86 1469.98 1209.86 1471.24 1209.86 1472.27 1208.83 1472.27 1207.57 1472.27 1206.31 1471.24 1205.28 1469.98 1205.28" fill="#25BEE0" fill-rule="evenodd"/></g></svg>