<svg width="83" height="84" xmlns="http://www.w3.org/2000/svg" xmlns:xlink="http://www.w3.org/1999/xlink" xml:space="preserve" overflow="hidden"><g transform="translate(-257 -238)"><path d="M60.5208 57.0625C57.0375 57.0657 54.1001 59.6586 53.6647 63.1146L42.3646 63.1146 42.3646 48.357C46.1516 47.8825 48.8369 44.4279 48.3625 40.6409 47.9697 37.5055 45.5001 35.0358 42.3646 34.643L42.3646 18.1562 29.3362 18.1562C28.8587 14.3663 25.3992 11.681 21.6091 12.1584 17.8191 12.6359 15.1338 16.0954 15.6113 19.8854 16.0889 23.6754 19.5483 26.3607 23.3383 25.8833 26.4728 25.4883 28.9412 23.0199 29.3362 19.8854L40.6354 19.8854 40.6354 34.643C36.8484 35.1175 34.1631 38.5721 34.6375 42.359 35.0303 45.4945 37.4999 47.9642 40.6354 48.357L40.6354 64.8438 53.6638 64.8438C54.1413 68.6337 57.6008 71.319 61.3909 70.8415 65.1808 70.3641 67.8662 66.9046 67.3886 63.1146 66.9527 59.6542 64.0086 57.0597 60.5208 57.0625ZM22.4792 24.2083C19.6142 24.2083 17.2917 21.8858 17.2917 19.0208 17.2917 16.1559 19.6142 13.8333 22.4792 13.8333 25.3441 13.8333 27.6667 16.1559 27.6667 19.0208 27.6633 21.8844 25.3428 24.205 22.4792 24.2083ZM36.3125 41.5C36.3125 38.635 38.635 36.3125 41.5 36.3125 44.365 36.3125 46.6875 38.635 46.6875 41.5 46.6875 44.365 44.365 46.6875 41.5 46.6875 38.6364 46.6841 36.3159 44.3636 36.3125 41.5ZM60.5208 69.1667C57.6559 69.1667 55.3333 66.8441 55.3333 63.9792 55.3333 61.1142 57.6559 58.7917 60.5208 58.7917 63.3858 58.7917 65.7083 61.1142 65.7083 63.9792 65.705 66.8428 63.3844 69.1633 60.5208 69.1667Z" transform="matrix(1 0 0 1.01205 257 238)"/></g></svg>