<?xml version="1.0" encoding="UTF-8"?>
<svg id="Ebene_2" data-name="Ebene 2" xmlns="http://www.w3.org/2000/svg" viewBox="0 0 99.42 121.56">
  <defs>
    <style>
      .cls-1 {
        fill: #25bee0;
        fill-rule: evenodd;
        stroke-width: 0px;
      }
    </style>
  </defs>
  <g id="Ebene_1-2" data-name="Ebene 1">
    <path class="cls-1" d="M44.53,66.19v-6.02h8.09c1.52,0,2.74-1.23,2.74-2.74V16.85h35.8l-13.78,23.26.04.02c-.24.42-.42.87-.42,1.39s.18.98.42,1.39l-.04.04,13.78,23.25h-46.63ZM6.02,4.81h43.33v49.35H6.02V4.81ZM99.02,67.99l-15.75-26.47,15.75-26.46-.04-.02c.26-.43.44-.89.44-1.41,0-1.54-1.24-2.8-2.77-2.8h-41.29V2.77c0-1.52-1.25-2.77-2.77-2.77H3.01C1.35,0,0,1.24,0,2.77v116.02c0,1.53,1.35,2.77,3.01,2.77s3.01-1.24,3.01-2.77v-58.61h32.5v9.28c0,1.52,1.24,2.76,2.76,2.76h55.13c.96,0,1.91-.42,2.46-1.2.83-1.18.61-2.18.12-3h.04Z"/>
  </g>
</svg>