<svg width="96" height="96" xmlns="http://www.w3.org/2000/svg" xmlns:xlink="http://www.w3.org/1999/xlink" xml:space="preserve" overflow="hidden"><g transform="translate(-129 -232)"><path d="M160.707 274.77 159.293 273.355 146.615 286.034C146.611 286.038 146.605 286.038 146.601 286.034 146.599 286.032 146.598 286.03 146.598 286.028 143.257 269.236 154.16 252.915 170.952 249.574 184.961 246.786 199.062 253.932 205.098 266.878L206.91 266.031C199.23 249.507 179.609 242.337 163.085 250.017 149.824 256.18 142.202 270.337 144.358 284.8 144.36 284.805 144.357 284.81 144.353 284.812 144.349 284.813 144.344 284.811 144.342 284.808L132.891 273.355 131.477 274.77 146.092 289.385Z"/><path d="M193.293 287.264 194.707 288.678 207.667 275.718C207.671 275.714 207.677 275.714 207.681 275.718 207.683 275.72 207.684 275.722 207.684 275.724 210.118 292.598 198.412 308.25 181.538 310.684 180.035 310.901 178.519 311.007 177 311 165.523 311.011 154.982 304.673 149.609 294.531L147.843 295.469C156.379 311.572 176.352 317.706 192.455 309.171 203.254 303.446 210.005 292.222 210 280 210 279.163 209.961 278.325 209.9 277.49 209.9 277.484 209.905 277.48 209.91 277.48 209.912 277.48 209.914 277.481 209.916 277.482L221.111 288.682 222.525 287.268 207.908 272.648Z"/></g></svg>