<svg width="85" height="84" xmlns="http://www.w3.org/2000/svg" xmlns:xlink="http://www.w3.org/1999/xlink" xml:space="preserve" overflow="hidden"><g transform="translate(-289 -18)"><path d="M13.125 66.5184 70.875 66.5184C72.8054 66.5122 74.3688 64.9488 74.375 63.0184L74.375 28.0079C74.3688 26.0774 72.8054 24.5141 70.875 24.5079L41.125 24.5079 31.5 18.1204C30.9491 17.6985 30.2683 17.4819 29.575 17.5079L13.125 17.5079C11.1944 17.5137 9.63078 19.0773 9.625 21.0079L9.625 63.0175C9.63025 64.9484 11.194 66.5126 13.125 66.5184ZM11.375 21.0061C11.375 20.0396 12.1585 19.2561 13.125 19.2561L29.575 19.2561C29.8583 19.2362 30.1405 19.3086 30.3791 19.4626L30.4526 19.5239 30.5323 19.5764 40.1572 25.9639 40.5947 26.2561 70.875 26.2561C71.8415 26.2561 72.625 27.0396 72.625 28.0061L72.625 63.0175C72.625 63.984 71.8415 64.7675 70.875 64.7675L13.125 64.7675C12.1585 64.7675 11.375 63.984 11.375 63.0175Z" transform="matrix(1.0119 0 0 1 289 18)"/></g></svg>