<?xml version="1.0" encoding="UTF-8"?>
<svg id="Ebene_2" data-name="Ebene 2" xmlns="http://www.w3.org/2000/svg" viewBox="0 0 246.82 55.06">
  <defs>
    <style>
      .cls-1 {
        fill: #fff;
        stroke-width: 0px;
      }
    </style>
  </defs>
  <g id="Ebene_2-2" data-name="Ebene 2">
    <g>
      <path class="cls-1" d="M33.05,17.58l5.4,8.09v-11.46h0c-.02-7-5.66-12.67-12.61-12.67h-15.58c-5.66,0-10.25,4.52-10.25,10.09v25.06c0,5.58,4.59,10.09,10.25,10.09l.08-35h11.94c4.33,0,8.37,2.17,10.78,5.78h0Z"/>
      <path class="cls-1" d="M50.24,6.01l-.08,35h-11.94c-4.33,0-8.37-2.17-10.78-5.78l-5.4-8.09v11.45h0c.02,7,5.66,12.67,12.61,12.67h15.58c5.66,0,10.25-4.52,10.25-10.09v-25.06c0-5.58-4.59-10.09-10.25-10.09h0Z"/>
      <path class="cls-1" d="M140.76,26.66c0-9.49-6.25-15.78-15.04-15.78s-15.27,6.46-15.27,15.44,6.54,15.49,16.36,15.49c5.05,0,9.24-1.72,12-4.92l-3.04-3.54c-2.24,2.46-5.23,3.66-8.78,3.66-6.03,0-10.33-3.55-11.02-8.81h24.69c.06-.57.11-1.26.11-1.54h0ZM115.97,24.09c.57-5.15,4.47-8.69,9.76-8.69s9.18,3.6,9.76,8.69h-19.52Z"/>
      <path class="cls-1" d="M237.74,22.2l-2.96-3.84,5.4-7.09h6.03l-8.47,10.93Z"/>
      <path class="cls-1" d="M246.82,41.53h-6.25l-8.77-11.59-.06.08-2.91,3.79-5.92,7.71h-6.13l9.02-11.65,2.92-3.77.03-.04-11.41-14.78h6.14l8.36,10.9.09.13,2.77,3.76h0l12.1,15.46Z"/>
      <path class="cls-1" d="M88.69,11.28c-7.93,0-14.35,6.42-14.35,14.35v15.89h5.13v-15.92c0-4.91,4.02-8.91,8.97-8.91s8.97,4,8.97,8.91v15.92h5.64v-15.89c0-7.93-6.42-14.35-14.35-14.35h0Z"/>
      <path class="cls-1" d="M212.24,11.28v29.44c0,7.91-6.64,14.34-14.81,14.34-6.96,0-12.82-4.68-14.39-10.97h6.23c1.35,3.23,4.57,5.51,8.33,5.51,4.96,0,9.01-3.98,9.01-8.88v-2.27c-2.48,1.94-5.62,3.09-9.03,3.09-8.04,0-14.56-6.43-14.56-14.36v-15.9h5.64v15.92c0,4.91,4.02,8.91,8.97,8.91s8.97-3.99,8.97-8.91v-15.92h5.64Z"/>
      <path class="cls-1" d="M176.86,0h-5.12v14.93c-2.65-2.38-6.13-3.82-9.93-3.82-8.32,0-15.06,6.89-15.06,15.39s6.74,15.39,15.06,15.39,15.06-6.89,15.06-15.39c0-.11,0-.23,0-.34h0V0h0ZM161.35,36.33c-5.54,0-10.04-4.48-10.04-10s4.5-10,10.04-10,10.03,4.48,10.03,10-4.5,10-10.03,10Z"/>
    </g>
  </g>
</svg>