<svg width="96" height="96" xmlns="http://www.w3.org/2000/svg" xmlns:xlink="http://www.w3.org/1999/xlink" xml:space="preserve" overflow="hidden"><g transform="translate(-1034 -239)"><path d="M1059.81 300.017 1059.81 325.324 1091.41 325.324 1091.41 313.324 1096.31 313.324C1102.82 313.324 1108.11 308.041 1108.11 301.524 1108.11 301.457 1108.11 301.39 1108.11 301.324L1108.11 295.324 1112.51 295.324C1115.11 295.024 1117.41 292.024 1115.01 288.324L1108.11 276.324 1108.11 275.824C1108.72 259.225 1095.76 245.27 1079.16 244.655 1079.16 244.655 1079.16 244.655 1079.15 244.655 1078.78 244.641 1078.41 244.635 1078.04 244.635 1061.86 244.647 1048.59 257.452 1048.01 273.617 1047.98 274.35 1047.98 275.081 1048.01 275.81 1047.97 285.274 1052.33 294.218 1059.81 300.017ZM1050 275.737C1049.98 275.058 1049.98 274.369 1050 273.689 1050.49 258.574 1062.91 246.59 1078.04 246.635 1078.38 246.635 1078.73 246.641 1079.08 246.654 1094.57 247.239 1106.66 260.249 1106.11 275.737L1106.11 276.844 1106.38 277.307 1113.28 289.307 1113.3 289.353 1113.33 289.398C1113.98 290.182 1114.17 291.248 1113.84 292.209 1113.55 292.789 1113.01 293.198 1112.37 293.309L1106.11 293.309 1106.11 301.509C1106.1 306.918 1101.72 311.302 1096.31 311.309L1089.41 311.309 1089.41 323.309 1061.81 323.309 1061.81 299.037 1061.04 298.437C1054.07 293.003 1050 284.655 1050.01 275.818L1050.01 275.778Z"/><path d="M1076.77 294.557 1076.77 294.557C1078.44 294.557 1079.84 293.269 1079.97 291.599L1073.57 291.599C1073.7 293.269 1075.09 294.558 1076.77 294.557Z"/><path d="M1063.97 271.058C1064.02 272.574 1064.32 274.072 1064.86 275.488 1065.38 276.825 1066.13 278.059 1067.08 279.131 1068.27 280.631 1069.28 282.265 1070.08 283.999 1070.25 284.333 1070.59 284.545 1070.97 284.545L1082.57 284.545C1082.95 284.545 1083.29 284.334 1083.45 284 1084.26 282.266 1085.27 280.632 1086.45 279.132 1087.41 278.06 1088.16 276.826 1088.68 275.489 1089.22 274.072 1089.52 272.575 1089.57 271.059L1089.57 270.616C1089.57 263.547 1083.84 257.816 1076.77 257.816 1069.7 257.816 1063.97 263.547 1063.97 270.616ZM1076.77 259.963C1082.67 259.972 1087.48 264.712 1087.57 270.615L1087.57 271.025C1087.53 272.305 1087.27 273.568 1086.81 274.764 1086.38 275.879 1085.75 276.907 1084.96 277.8L1084.92 277.843 1084.89 277.887C1083.74 279.332 1082.75 280.892 1081.93 282.542L1071.6 282.542C1070.78 280.892 1069.79 279.332 1068.65 277.887L1068.61 277.843 1068.58 277.8C1067.79 276.909 1067.16 275.882 1066.73 274.77 1066.27 273.571 1066.01 272.304 1065.97 271.021L1065.97 270.648C1066.04 264.734 1070.85 259.976 1076.77 259.963Z"/><path d="M1081.65 287.09 1072.08 287.09C1071.53 287.09 1071.08 287.538 1071.08 288.09 1071.08 288.642 1071.53 289.09 1072.08 289.09L1081.65 289.09C1082.2 289.09 1082.65 288.642 1082.65 288.09 1082.65 287.538 1082.2 287.09 1081.65 287.09Z"/><path d="M1092.45 271.523 1096.29 271.523C1096.84 271.523 1097.29 271.075 1097.29 270.523 1097.29 269.971 1096.84 269.523 1096.29 269.523L1092.45 269.523C1091.89 269.523 1091.45 269.971 1091.45 270.523 1091.45 271.075 1091.89 271.523 1092.45 271.523Z"/><path d="M1057.25 271.523 1061.09 271.523C1061.64 271.523 1062.09 271.075 1062.09 270.523 1062.09 269.971 1061.64 269.523 1061.09 269.523L1057.25 269.523C1056.69 269.523 1056.25 269.971 1056.25 270.523 1056.25 271.075 1056.69 271.523 1057.25 271.523Z"/><path d="M1088.56 280.9C1088.16 280.516 1087.53 280.527 1087.15 280.925 1086.77 281.312 1086.77 281.927 1087.15 282.314L1089.87 285.034C1090.26 285.418 1090.9 285.407 1091.28 285.009 1091.66 284.622 1091.66 284.008 1091.28 283.62Z"/><path d="M1064.98 260.145C1065.37 260.535 1066 260.535 1066.39 260.145 1066.78 259.754 1066.78 259.121 1066.39 258.73L1063.67 256.011C1063.29 255.614 1062.65 255.603 1062.26 255.986 1061.86 256.37 1061.85 257.003 1062.23 257.4 1062.24 257.409 1062.25 257.417 1062.26 257.425Z"/><path d="M1064.98 280.9 1062.26 283.62C1061.86 284.004 1061.85 284.637 1062.23 285.034 1062.62 285.431 1063.25 285.442 1063.65 285.059 1063.65 285.051 1063.66 285.042 1063.67 285.034L1066.39 282.314C1066.77 281.917 1066.76 281.284 1066.37 280.9 1065.98 280.526 1065.36 280.526 1064.98 280.9Z"/><path d="M1087.85 260.438C1088.12 260.438 1088.37 260.333 1088.56 260.145L1091.28 257.425C1091.66 257.028 1091.65 256.395 1091.26 256.011 1090.87 255.637 1090.25 255.637 1089.87 256.011L1087.15 258.73C1086.76 259.12 1086.76 259.753 1087.15 260.144 1087.33 260.332 1087.59 260.438 1087.85 260.438Z"/><path d="M1076.77 255.846C1077.32 255.846 1077.77 255.398 1077.77 254.846L1077.77 251C1077.77 250.448 1077.32 250 1076.77 250 1076.22 250 1075.77 250.448 1075.77 251L1075.77 254.846C1075.77 255.398 1076.22 255.846 1076.77 255.846Z"/></g></svg>