<svg width="101" height="83" xmlns="http://www.w3.org/2000/svg" xmlns:xlink="http://www.w3.org/1999/xlink" xml:space="preserve" overflow="hidden"><defs><clipPath id="clip0"><rect x="604" y="1986" width="101" height="83"/></clipPath></defs><g clip-path="url(#clip0)" transform="translate(-604 -1986)"><path d="M624.841 2064.39C625.911 2057.9 631.574 2055.3 637.358 2053.22L637.54 2053.16C641.665 2052.05 649.01 2047.63 649.01 2038.14 649.01 2030.09 645.765 2026.16 644.017 2024.05 643.671 2023.62 643.25 2023.08 643.343 2023.2 643.203 2022.89 642.516 2021.08 643.507 2016.88 643.974 2014.91 643.184 2013.82 643.184 2013.82 641.931 2010.99 639.602 2005.72 641.351 2001.47 643.699 1995.58 645.779 1994.42 649.548 1992.71 649.768 1992.61 649.983 1992.5 650.184 1992.37 650.895 1991.9 653.911 1990.61 657.32 1990.61 659.026 1990.61 660.462 1990.94 661.598 1991.59 662.963 1992.36 664.273 1993.83 666.251 1998.57 669.935 2007.02 667.602 2011.74 666.424 2013.37 665.643 2014.46 665.376 2015.83 665.68 2017.14 666.592 2021 666.003 2022.64 665.848 2022.96 665.811 2023.01 665.259 2023.71 664.979 2024.05 663.235 2026.16 659.985 2030.09 659.985 2038.14 659.985 2047.63 667.335 2052.05 671.46 2053.16L671.642 2053.22C677.426 2055.3 683.089 2057.9 684.159 2064.39 684.159 2064.39 624.841 2064.39 624.841 2064.39ZM672.806 2048.74C672.806 2048.74 664.577 2046.77 664.577 2038.14 664.577 2030.56 667.957 2027.89 669.262 2026.05 669.262 2026.05 671.946 2023.69 670.146 2016.07 673.143 2011.9 674.115 2005.11 670.45 1996.72 668.406 1991.82 666.606 1989.13 663.857 1987.57 661.841 1986.42 659.55 1986 657.32 1986 653.172 1986 649.24 1987.48 647.668 1988.51 643.077 1990.58 639.991 1992.49 637.091 1999.76 634.581 2005.86 637.568 2012.48 639.041 2015.81 637.246 2023.43 639.733 2026.05 639.733 2026.05 641.043 2027.89 644.419 2030.56 644.419 2038.14 644.419 2046.77 636.194 2048.74 636.194 2048.74 630.971 2050.63 620.066 2054.24 620.066 2066.69 620.066 2066.69 620.066 2069 622.362 2069L686.638 2069C688.934 2069 688.934 2066.69 688.934 2066.69 688.934 2054.24 678.029 2050.63 672.806 2048.74M695.255 2043.67C695.255 2043.67 690.112 2042.49 690.112 2035.78 690.112 2029.88 691.879 2027.8 692.922 2026.37 692.922 2026.37 694.914 2024.33 693.479 2018.41 694.657 2015.82 697.051 2010.67 695.04 2005.92 692.721 2000.27 691.183 1998.78 687.512 1997.17 686.254 1996.37 683.107 1995.22 679.787 1995.22 678.221 1995.22 676.622 1995.51 675.158 1996.17 675.743 1997.66 676.238 1999.14 676.594 2000.6 676.65 2000.57 676.711 2000.52 676.771 2000.49 677.552 2000.05 678.572 1999.83 679.787 1999.83 682.163 1999.83 684.477 2000.7 685.043 2001.06 685.244 2001.19 685.459 2001.3 685.674 2001.4 687.933 2002.39 688.779 2002.76 690.795 2007.68 692.01 2010.54 690.28 2014.35 689.35 2016.39 688.919 2017.34 688.775 2018.5 689.018 2019.5 689.644 2022.09 689.354 2023.3 689.251 2023.6 689.242 2023.62 689.228 2023.63 689.214 2023.65L689.06 2023.86C687.821 2025.54 685.52 2028.68 685.52 2035.78 685.52 2043.71 690.832 2047.22 693.913 2048.08 696.845 2049.13 699.553 2050.78 700.24 2055.16L690.313 2055.17C691.192 2056.52 691.917 2058.07 692.469 2059.78L702.704 2059.77C705 2059.77 705 2057.47 705 2057.47 705 2048.25 699.436 2045.13 695.255 2043.67M615.087 2048.08C618.168 2047.22 623.48 2043.71 623.48 2035.78 623.48 2028.68 621.175 2025.54 619.94 2023.86L619.786 2023.65C619.772 2023.63 619.758 2023.62 619.744 2023.6 619.646 2023.3 619.351 2022.09 619.982 2019.5 620.225 2018.5 620.08 2017.34 619.65 2016.39 618.72 2014.35 616.99 2010.54 618.205 2007.68 620.221 2002.76 621.062 2002.39 623.326 2001.4 623.545 2001.3 623.756 2001.19 623.957 2001.06 624.523 2000.7 626.837 1999.83 629.213 1999.83 630.353 1999.83 631.303 2000.04 632.065 2000.43 632.266 1999.63 632.504 1998.84 632.827 1998.04 633.108 1997.34 633.407 1996.73 633.697 1996.11 632.271 1995.49 630.728 1995.22 629.213 1995.22 625.893 1995.22 622.746 1996.37 621.488 1997.17 617.817 1998.78 616.274 2000.27 613.96 2005.92 611.949 2010.67 614.343 2015.82 615.521 2018.41 614.081 2024.33 616.078 2026.37 616.078 2026.37 617.121 2027.8 618.893 2029.88 618.893 2035.78 618.893 2042.49 613.745 2043.67 613.745 2043.67 609.569 2045.13 604 2048.25 604 2057.47 604 2057.47 604 2059.77 606.296 2059.77L616.531 2059.78C617.083 2058.07 617.803 2056.52 618.687 2055.17L608.76 2055.16C609.447 2050.78 612.155 2049.13 615.087 2048.08" fill="#2B2B2B" fill-rule="evenodd"/></g></svg>