<svg width="96" height="96" xmlns="http://www.w3.org/2000/svg" xmlns:xlink="http://www.w3.org/1999/xlink" xml:space="preserve" overflow="hidden"><g transform="translate(-4 -445)"><path d="M52 456 52 456C31.6 456 15 472.6 15 493 15 513.4 31.6 530 52 530 72.4 530 89 513.4 89 493 89 472.6 72.4 456 52 456ZM87 492 71 492C70.7 478.5 64.8 465.9 55.2 458.2 72.8 459.8 86.4 474.3 87 492ZM51 492 35 492C35.3 478.6 41.3 466.2 51 459L51 492ZM51 494 51 527C41.3 519.7 35.3 507.3 35 494L51 494ZM53 494 69 494C68.7 507.4 62.7 519.8 53 527L53 494ZM53 492 53 459C62.7 466.3 68.7 478.7 69 492L53 492ZM48.8 458.2C39.2 465.9 33.3 478.5 33 492L17 492C17.6 474.3 31.2 459.8 48.8 458.2ZM17 494 33 494C33.3 507.5 39.2 520.1 48.8 527.8 31.2 526.2 17.6 511.7 17 494ZM55.2 527.8C64.8 520.1 70.7 507.5 71 494L87 494C86.5 511.5 73.2 525.9 55.9 527.8 55.6 527.8 55.2 527.8 55.2 527.8Z"/></g></svg>