<?xml version="1.0" encoding="UTF-8"?>
<svg id="Ebene_2" data-name="Ebene 2" xmlns="http://www.w3.org/2000/svg" viewBox="0 0 123.63 89.36">
  <defs>
    <style>
      .cls-1 {
        fill: #25bee0;
        fill-rule: evenodd;
        stroke-width: 0px;
      }
    </style>
  </defs>
  <g id="Ebene_1-2" data-name="Ebene 1">
    <path class="cls-1" d="M118.74,77.83c0,.33-.04.65-.1.97l-34.7-34.48L118.64,9.84c.06.32.1.64.1.97v67.02ZM112.62,83.24H11.56c-.65,0-1.29-.13-1.87-.34l35.02-34.81,9.65,9.59c2.15,2.14,4.97,3.21,7.79,3.21s5.63-1.07,7.77-3.21l9.66-9.59,35.02,34.81c-.59.21-1.21.34-1.87.34M6.12,78.34V10.81c0-.33.04-.65.1-.97l34.7,34.48L6.22,78.81c-.06-.32-.1-.64-.1-.97M11.02,4.9h101.7c.66,0,1.29.14,1.87.34l-48.65,48.34c-1.02,1.01-2.37,1.57-3.81,1.57s-2.79-.55-3.81-1.57L9.68,5.24c.59-.21,1.22-.34,1.87-.34M112.62,0H11.24C5.03,0,0,5,0,11.17v67.02c0,6.17,5.03,11.17,11.24,11.17h101.16c6.21,0,11.24-5,11.24-11.17V11.17c0-6.17-5.03-11.17-11.24-11.17"/>
  </g>
</svg>