<svg width="101" height="101" xmlns="http://www.w3.org/2000/svg" xmlns:xlink="http://www.w3.org/1999/xlink" xml:space="preserve" overflow="hidden"><defs><clipPath id="clip0"><rect x="1601" y="1133" width="101" height="101"/></clipPath></defs><g clip-path="url(#clip0)" transform="translate(-1601 -1133)"><path d="M1660.68 1224.82C1660.68 1227.35 1658.63 1229.41 1656.09 1229.41L1646.91 1229.41C1644.37 1229.41 1642.32 1227.35 1642.32 1224.82L1642.32 1215.64C1642.32 1213.1 1644.37 1211.05 1646.91 1211.05L1656.09 1211.05C1658.63 1211.05 1660.68 1213.1 1660.68 1215.64 1660.68 1215.64 1660.68 1224.82 1660.68 1224.82ZM1656.09 1206.45 1646.91 1206.45C1641.84 1206.45 1637.73 1210.56 1637.73 1215.64L1637.73 1224.82C1637.73 1229.89 1641.84 1234 1646.91 1234L1656.09 1234C1661.16 1234 1665.27 1229.89 1665.27 1224.82L1665.27 1215.64C1665.27 1210.56 1661.16 1206.45 1656.09 1206.45M1697.41 1224.82C1697.41 1227.35 1695.35 1229.41 1692.82 1229.41L1683.64 1229.41C1681.1 1229.41 1679.05 1227.35 1679.05 1224.82L1679.05 1215.64C1679.05 1213.1 1681.1 1211.05 1683.64 1211.05L1692.82 1211.05C1695.35 1211.05 1697.41 1213.1 1697.41 1215.64 1697.41 1215.64 1697.41 1224.82 1697.41 1224.82ZM1692.82 1206.45 1683.64 1206.45C1678.56 1206.45 1674.45 1210.56 1674.45 1215.64L1674.45 1224.82C1674.45 1229.89 1678.56 1234 1683.64 1234L1692.82 1234C1697.89 1234 1702 1229.89 1702 1224.82L1702 1215.64C1702 1210.56 1697.89 1206.45 1692.82 1206.45M1623.95 1224.82C1623.95 1227.35 1621.9 1229.41 1619.36 1229.41L1610.18 1229.41C1607.65 1229.41 1605.59 1227.35 1605.59 1224.82L1605.59 1215.64C1605.59 1213.1 1607.65 1211.05 1610.18 1211.05L1619.36 1211.05C1621.9 1211.05 1623.95 1213.1 1623.95 1215.64 1623.95 1215.64 1623.95 1224.82 1623.95 1224.82ZM1619.36 1206.45 1610.18 1206.45C1605.11 1206.45 1601 1210.56 1601 1215.64L1601 1224.82C1601 1229.89 1605.11 1234 1610.18 1234L1619.36 1234C1624.44 1234 1628.55 1229.89 1628.55 1224.82L1628.55 1215.64C1628.55 1210.56 1624.44 1206.45 1619.36 1206.45M1614.77 1201.86C1616.04 1201.86 1617.07 1200.84 1617.07 1199.57L1617.07 1183.5 1649.2 1183.5 1649.2 1199.57C1649.2 1200.84 1650.23 1201.86 1651.5 1201.86 1652.77 1201.86 1653.8 1200.84 1653.8 1199.57L1653.8 1183.5 1685.93 1183.5 1685.93 1199.57C1685.93 1200.84 1686.96 1201.86 1688.23 1201.86 1689.5 1201.86 1690.52 1200.84 1690.52 1199.57L1690.52 1181.2C1690.52 1179.94 1689.5 1178.91 1688.23 1178.91L1653.8 1178.91 1653.8 1167.43C1653.8 1166.17 1652.77 1165.14 1651.5 1165.14 1650.23 1165.14 1649.2 1166.17 1649.2 1167.43L1649.2 1178.91 1614.77 1178.91C1613.5 1178.91 1612.48 1179.94 1612.48 1181.2L1612.48 1199.57C1612.48 1200.84 1613.5 1201.86 1614.77 1201.86M1642.32 1142.18C1642.32 1139.65 1644.37 1137.59 1646.91 1137.59L1656.09 1137.59C1658.63 1137.59 1660.68 1139.65 1660.68 1142.18L1660.68 1151.36C1660.68 1153.9 1658.63 1155.95 1656.09 1155.95L1646.91 1155.95C1644.37 1155.95 1642.32 1153.9 1642.32 1151.36 1642.32 1151.36 1642.32 1142.18 1642.32 1142.18ZM1646.91 1160.55 1656.09 1160.55C1661.16 1160.55 1665.27 1156.44 1665.27 1151.36L1665.27 1142.18C1665.27 1137.11 1661.16 1133 1656.09 1133L1646.91 1133C1641.84 1133 1637.73 1137.11 1637.73 1142.18L1637.73 1151.36C1637.73 1156.44 1641.84 1160.55 1646.91 1160.55" fill="#25BEE0" fill-rule="evenodd"/></g></svg>