<?xml version="1.0" encoding="UTF-8"?>
<svg id="Ebene_2" data-name="Ebene 2" xmlns="http://www.w3.org/2000/svg" viewBox="0 0 91 100">
  <defs>
    <style>
      .cls-1 {
        fill: #2b2b2b;
        fill-rule: evenodd;
        stroke-width: 0px;
      }
    </style>
  </defs>
  <g id="Ebene_1-2" data-name="Ebene 1">
    <path class="cls-1" d="M79.65,95.45c-3.77,0-6.82-3.06-6.82-6.82s3.05-6.82,6.82-6.82,6.83,3.05,6.83,6.82-3.05,6.82-6.83,6.82M11.39,56.8c-3.77,0-6.83-3.06-6.83-6.82s3.06-6.82,6.83-6.82,6.82,3.05,6.82,6.82-3.05,6.82-6.82,6.82M79.65,4.51c3.78,0,6.83,3.05,6.83,6.82s-3.05,6.82-6.83,6.82-6.82-3.05-6.82-6.82,3.05-6.82,6.82-6.82M79.63,77.29c-3.41,0-6.43,1.53-8.52,3.91l-48.98-27.73c.36-1.1.6-2.26.6-3.48s-.24-2.38-.6-3.48l48.98-27.72c2.08,2.38,5.11,3.91,8.52,3.91,6.29,0,11.37-5.08,11.37-11.36S85.92,0,79.63,0s-11.36,5.08-11.36,11.35c0,1.23.24,2.38.6,3.48l-48.98,27.73c-2.08-2.38-5.11-3.92-8.52-3.92-6.29,0-11.37,5.08-11.37,11.36s5.08,11.36,11.37,11.36c3.41,0,6.44-1.54,8.52-3.92l48.98,27.72c-.36,1.11-.6,2.26-.6,3.48,0,6.27,5.09,11.36,11.36,11.36s11.37-5.08,11.37-11.36-5.08-11.35-11.37-11.35"/>
  </g>
</svg>