<svg width="96" height="96" xmlns="http://www.w3.org/2000/svg" xmlns:xlink="http://www.w3.org/1999/xlink" xml:space="preserve" overflow="hidden"><g transform="translate(-234 -124)"><path d="M311 203 311 143C311 137.154 296.059 134 282 134 267.941 134 253 137.154 253 143L253 203C253 208.846 267.941 212 282 212 296.059 212 311 208.846 311 203ZM282 136C297.453 136 309 139.7 309 143 309 146.3 297.453 150 282 150 266.547 150 255 146.3 255 143 255 139.7 266.547 136 282 136ZM255 146.46C259.529 150.08 271.033 152 282 152 292.967 152 304.471 150.08 309 146.46L309 163C309 166.3 297.453 170 282 170 266.547 170 255 166.3 255 163ZM255 166.46C259.529 170.08 271.033 172 282 172 292.967 172 304.471 170.08 309 166.46L309 183C309 186.3 297.453 190 282 190 266.547 190 255 186.3 255 183ZM255 203 255 186.46C259.529 190.08 271.033 192 282 192 292.967 192 304.471 190.08 309 186.46L309 203C309 206.3 297.453 210 282 210 266.547 210 255 206.3 255 203Z"/><path d="M304 160C304 161.105 303.105 162 302 162 300.895 162 300 161.105 300 160 300 158.895 300.895 158 302 158 303.105 158 304 158.895 304 160Z"/><path d="M304 180C304 181.105 303.105 182 302 182 300.895 182 300 181.105 300 180 300 178.895 300.895 178 302 178 303.105 178 304 178.895 304 180Z"/><path d="M304 200C304 201.105 303.105 202 302 202 300.895 202 300 201.105 300 200 300 198.895 300.895 198 302 198 303.105 198 304 198.895 304 200Z"/></g></svg>