<?xml version="1.0" encoding="UTF-8"?>
<svg xmlns="http://www.w3.org/2000/svg" viewBox="0 0 841.89 497.48">
  <defs>
    <style>
      .cls-1 {
        letter-spacing: -.05em;
      }

      .cls-2, .cls-3 {
        fill: #ed7203;
      }

      .cls-3 {
        font-family: Yantramanav-Regular, Yantramanav;
        font-size: 86.78px;
      }

      .cls-4 {
        fill: #1d1d1b;
      }
    </style>
  </defs>
  <g id="Quadrat__x2B__Slogan">
    <rect class="cls-2" x="700.76" y="51.49" width="120.21" height="120.21"/>
    <text class="cls-3" transform="translate(12.13 449.01)"><tspan x="0" y="0">Digitize the future no</tspan><tspan class="cls-1" x="740.92" y="0">w</tspan><tspan x="795.28" y="0">.</tspan></text>
  </g>
  <g id="Consulting">
    <g>
      <path class="cls-4" d="M108.83,329.33c-5.82,2.91-17.47,5.82-32.39,5.82-34.57,0-60.59-21.83-60.59-62.04s26.02-64.41,64.04-64.41c15.28,0,24.93,3.27,29.11,5.46l-3.82,12.92c-6-2.91-14.56-5.09-24.74-5.09-28.75,0-47.85,18.38-47.85,50.58,0,30.02,17.28,49.31,47.12,49.31,9.64,0,19.47-2,25.84-5.09l3.27,12.55Z"/>
      <path class="cls-4" d="M205.81,288.58c0,32.57-22.56,46.76-43.85,46.76-23.83,0-42.21-17.47-42.21-45.3,0-29.48,19.29-46.76,43.67-46.76s42.39,18.38,42.39,45.3ZM135.95,289.49c0,19.29,11.1,33.84,26.75,33.84s26.75-14.37,26.75-34.21c0-14.92-7.46-33.84-26.38-33.84s-27.11,17.47-27.11,34.21Z"/>
      <path class="cls-4" d="M226.01,269.11c0-9.1-.18-16.56-.73-23.83h14.19l.91,14.56h.36c4.37-8.37,14.56-16.56,29.11-16.56,12.19,0,31.11,7.28,31.11,37.48v52.58h-16.01v-50.76c0-14.19-5.28-26.02-20.38-26.02-10.55,0-18.74,7.46-21.47,16.38-.73,2-1.09,4.73-1.09,7.46v52.95h-16.01v-64.23Z"/>
      <path class="cls-4" d="M324.81,316.96c4.73,3.09,13.1,6.37,21.11,6.37,11.64,0,17.1-5.82,17.1-13.1,0-7.64-4.55-11.83-16.38-16.19-15.83-5.64-23.29-14.37-23.29-24.93,0-14.19,11.46-25.84,30.39-25.84,8.92,0,16.74,2.55,21.65,5.46l-4,11.64c-3.46-2.18-9.83-5.09-18.01-5.09-9.46,0-14.74,5.46-14.74,12.01,0,7.28,5.28,10.55,16.74,14.92,15.28,5.82,23.11,13.46,23.11,26.56,0,15.47-12.01,26.38-32.93,26.38-9.64,0-18.56-2.37-24.74-6l4-12.19Z"/>
      <path class="cls-4" d="M472.74,309.32c0,9.1.18,17.1.73,24.02h-14.19l-.91-14.37h-.36c-4.19,7.1-13.46,16.38-29.11,16.38-13.83,0-30.39-7.64-30.39-38.57v-51.49h16.01v48.76c0,16.74,5.09,28.02,19.65,28.02,10.73,0,18.19-7.46,21.11-14.56.91-2.37,1.46-5.28,1.46-8.19v-54.04h16.01v64.04Z"/>
      <path class="cls-4" d="M499.3,204.15h16.01v129.18h-16.01v-129.18Z"/>
      <path class="cls-4" d="M561.53,219.98v25.29h22.92v12.19h-22.92v47.49c0,10.92,3.09,17.1,12.01,17.1,4.18,0,7.28-.55,9.28-1.09l.73,12.01c-3.09,1.27-8.01,2.18-14.19,2.18-7.46,0-13.46-2.37-17.28-6.73-4.55-4.73-6.19-12.55-6.19-22.93v-48.03h-13.65v-12.19h13.65v-21.11l15.65-4.18Z"/>
      <path class="cls-4" d="M620.29,220.53c.18,5.46-3.82,9.83-10.19,9.83-5.64,0-9.64-4.37-9.64-9.83s4.19-10.01,10.01-10.01,9.82,4.37,9.82,10.01ZM602.46,333.33v-88.06h16.01v88.06h-16.01Z"/>
      <path class="cls-4" d="M645.04,269.11c0-9.1-.18-16.56-.73-23.83h14.19l.91,14.56h.36c4.37-8.37,14.56-16.56,29.11-16.56,12.19,0,31.11,7.28,31.11,37.48v52.58h-16.01v-50.76c0-14.19-5.28-26.02-20.38-26.02-10.55,0-18.74,7.46-21.47,16.38-.73,2-1.09,4.73-1.09,7.46v52.95h-16.01v-64.23Z"/>
      <path class="cls-4" d="M821.89,245.27c-.36,6.37-.73,13.46-.73,24.2v51.13c0,20.2-4,32.57-12.55,40.21-8.55,8.01-20.92,10.55-32.02,10.55s-22.2-2.55-29.29-7.28l4-12.19c5.82,3.64,14.92,6.91,25.84,6.91,16.38,0,28.38-8.55,28.38-30.75v-9.83h-.36c-4.91,8.19-14.37,14.74-28.02,14.74-21.83,0-37.48-18.56-37.48-42.94,0-29.84,19.47-46.76,39.66-46.76,15.28,0,23.65,8.01,27.47,15.28h.36l.73-13.28h14.01ZM805.34,280.02c0-2.73-.18-5.09-.91-7.28-2.91-9.28-10.73-16.92-22.38-16.92-15.28,0-26.2,12.92-26.2,33.3,0,17.29,8.73,31.66,26.02,31.66,9.83,0,18.74-6.19,22.2-16.38.91-2.73,1.27-5.82,1.27-8.55v-15.83Z"/>
    </g>
  </g>
  <g id="Partake">
    <g>
      <path class="cls-4" d="M19.09,47.17c7.85-1.31,18.14-2.43,31.23-2.43,16.08,0,27.86,3.74,35.34,10.47,6.92,5.98,11.03,15.15,11.03,26.36s-3.37,20.38-9.72,26.93c-8.6,9.16-22.62,13.84-38.52,13.84-4.86,0-9.35-.19-13.09-1.12v50.48h-16.27V47.17ZM35.35,107.94c3.55.94,8.04,1.31,13.46,1.31,19.63,0,31.6-9.54,31.6-26.93s-11.78-24.68-29.73-24.68c-7.11,0-12.53.56-15.33,1.31v48.99Z"/>
      <path class="cls-4" d="M163.25,171.7l-1.31-11.41h-.56c-5.05,7.1-14.77,13.46-27.67,13.46-18.32,0-27.67-12.9-27.67-25.99,0-21.88,19.45-33.84,54.41-33.66v-1.87c0-7.48-2.06-20.94-20.57-20.94-8.41,0-17.2,2.62-23.56,6.73l-3.74-10.85c7.48-4.86,18.32-8.04,29.73-8.04,27.67,0,34.4,18.89,34.4,37.02v33.84c0,7.85.37,15.52,1.5,21.69h-14.96ZM160.82,125.52c-17.95-.37-38.33,2.8-38.33,20.38,0,10.66,7.11,15.71,15.52,15.71,11.78,0,19.26-7.48,21.88-15.15.56-1.68.93-3.55.93-5.24v-15.71Z"/>
      <path class="cls-4" d="M203.27,109.44c0-10.66-.19-19.82-.75-28.23h14.4l.56,17.76h.75c4.11-12.15,14.02-19.82,25.06-19.82,1.87,0,3.18.19,4.67.56v15.52c-1.68-.37-3.37-.56-5.61-.56-11.59,0-19.82,8.79-22.06,21.13-.37,2.24-.75,4.86-.75,7.67v48.24h-16.27v-62.26Z"/>
      <path class="cls-4" d="M288.72,55.21v25.99h23.56v12.53h-23.56v48.8c0,11.22,3.18,17.58,12.34,17.58,4.3,0,7.48-.56,9.54-1.12l.75,12.34c-3.18,1.31-8.23,2.24-14.58,2.24-7.67,0-13.84-2.43-17.76-6.92-4.67-4.86-6.36-12.9-6.36-23.56v-49.36h-14.02v-12.53h14.02v-21.69l16.08-4.3Z"/>
      <path class="cls-4" d="M380.9,171.7l-1.31-11.41h-.56c-5.05,7.1-14.77,13.46-27.67,13.46-18.32,0-27.67-12.9-27.67-25.99,0-21.88,19.45-33.84,54.41-33.66v-1.87c0-7.48-2.06-20.94-20.57-20.94-8.41,0-17.2,2.62-23.56,6.73l-3.74-10.85c7.48-4.86,18.32-8.04,29.73-8.04,27.67,0,34.4,18.89,34.4,37.02v33.84c0,7.85.37,15.52,1.5,21.69h-14.96ZM378.47,125.52c-17.95-.37-38.33,2.8-38.33,20.38,0,10.66,7.11,15.71,15.52,15.71,11.78,0,19.26-7.48,21.88-15.15.56-1.68.93-3.55.93-5.24v-15.71Z"/>
      <path class="cls-4" d="M437.19,122.71h.37c2.24-3.18,5.42-7.1,8.04-10.28l26.55-31.23h19.82l-34.96,37.21,39.83,53.29h-20.01l-31.23-43.38-8.41,9.35v34.03h-16.27V38.94h16.27v83.77Z"/>
      <path class="cls-4" d="M517.78,129.44c.37,22.25,14.58,31.41,31.04,31.41,11.78,0,18.88-2.06,25.06-4.67l2.8,11.78c-5.8,2.62-15.71,5.61-30.1,5.61-27.86,0-44.5-18.32-44.5-45.62s16.08-48.8,42.44-48.8c29.54,0,37.4,25.99,37.4,42.63,0,3.37-.37,5.98-.56,7.67h-63.57ZM566.02,117.66c.19-10.47-4.3-26.74-22.81-26.74-16.64,0-23.93,15.33-25.24,26.74h48.05Z"/>
    </g>
  </g>
</svg>