<svg width="96" height="96" xmlns="http://www.w3.org/2000/svg" xmlns:xlink="http://www.w3.org/1999/xlink" xml:space="preserve" overflow="hidden"><g transform="translate(-386 -545)"><path d="M467.9 593.6C467.6 593.3 467.6 592.8 467.9 592.4L470.3 589.5C471.3 588.2 471.1 586.4 469.9 585.4 469.8 585.3 469.7 585.3 469.6 585.2L466.4 583.1C466 582.9 465.9 582.4 466 582L467.4 578.5C468 577 467.2 575.3 465.7 574.7 465.6 574.7 465.5 574.6 465.4 574.6L461.7 573.6C461.3 573.5 461 573.1 461 572.6L461.2 568.8C461.3 567.2 460.1 565.8 458.4 565.7 458.3 565.7 458.2 565.7 458.1 565.7L454.3 565.9C453.8 565.9 453.4 565.6 453.3 565.2L452.3 561.5C451.9 559.9 450.3 559 448.7 559.4 448.6 559.4 448.5 559.5 448.4 559.5L444.9 560.9C444.5 561.1 444 560.9 443.8 560.5L441.7 557.3C440.8 555.9 439 555.5 437.6 556.4 437.5 556.5 437.4 556.5 437.3 556.6L434.4 559C434.1 559.3 433.5 559.3 433.2 559L430.3 556.6C429 555.6 427.2 555.8 426.2 557 426.1 557.1 426.1 557.2 426 557.3L423.9 560.5C423.7 560.9 423.2 561 422.8 560.9L419.3 559.5C417.8 558.9 416.1 559.6 415.5 561.1 415.5 561.2 415.4 561.3 415.4 561.5L414.4 565.2C414.3 565.6 413.9 565.9 413.4 565.9L409.6 565.7C408 565.6 406.6 566.8 406.5 568.5 406.5 568.6 406.5 568.7 406.5 568.8L406.7 572.6C406.7 573 406.4 573.5 406 573.6L402.3 574.6C400.7 575 399.8 576.6 400.2 578.2 400.2 578.3 400.3 578.4 400.3 578.5L401.7 582C401.9 582.4 401.7 582.9 401.3 583.1L398.1 585.1C396.7 586 396.3 587.8 397.2 589.2 397.3 589.3 397.3 589.4 397.4 589.5L399.8 592.4C400.1 592.7 400.1 593.3 399.8 593.6L397.4 596.5C396.4 597.8 396.6 599.6 397.8 600.6 397.9 600.7 398 600.7 398.1 600.8L401.3 602.9C401.7 603.1 401.8 603.6 401.7 604L400.3 607.5C399.7 609 400.5 610.7 402 611.3 402.1 611.3 402.2 611.4 402.3 611.4L406 612.4C406.4 612.5 406.7 612.9 406.7 613.4L406.5 617.2C406.4 618.8 407.6 620.2 409.3 620.3 409.4 620.3 409.5 620.3 409.6 620.3L413.4 620.1C413.8 620.1 414.3 620.4 414.4 620.8L415.4 624.5C415.8 626.1 417.4 627 419 626.6 419.1 626.6 419.2 626.5 419.3 626.5L422.8 625.1C423.2 624.9 423.7 625.1 423.9 625.5L426 628.7C426.9 630.1 428.7 630.5 430.1 629.6 430.2 629.5 430.3 629.5 430.3 629.4L433.2 627C433.5 626.7 434.1 626.7 434.4 627L437.3 629.4C437.8 629.8 438.5 630.1 439.2 630.1 439.4 630.1 439.5 630.1 439.7 630.1 440.5 630 441.3 629.5 441.7 628.8L443.8 625.6C444 625.2 444.5 625.1 444.9 625.2L448.4 626.6C449.9 627.2 451.6 626.4 452.2 624.9 452.2 624.8 452.3 624.7 452.3 624.6L453.3 620.9C453.4 620.5 453.8 620.2 454.3 620.2L458.1 620.4C459.7 620.5 461.1 619.3 461.2 617.6 461.2 617.5 461.2 617.4 461.2 617.3L461 613.5C461 613.1 461.3 612.6 461.7 612.5L465.4 611.5C467 611.1 467.9 609.5 467.5 607.9 467.5 607.8 467.4 607.7 467.4 607.6L466 604.1C465.8 603.7 466 603.2 466.4 603L469.6 600.9C471 600 471.4 598.2 470.5 596.8 470.5 596.7 467.9 593.6 467.9 593.6ZM465.4 601.3C464.2 602.1 463.7 603.5 464.3 604.8L465.7 608.3C465.9 608.8 465.6 609.3 465.2 609.5L465.1 609.5 461.4 610.5C460 610.9 459.1 612.1 459.2 613.5L459.4 617.3C459.4 617.8 459 618.3 458.5 618.3L458.4 618.3 454.6 618.1C453.2 618 451.9 618.9 451.6 620.3L450.6 624C450.5 624.5 449.9 624.8 449.4 624.7L449.3 624.7 445.8 623.3C444.5 622.8 443 623.3 442.2 624.4L440.1 627.6C439.8 628 439.2 628.2 438.8 627.9 438.8 627.9 438.7 627.9 438.7 627.8L435.8 625.4C434.7 624.5 433.2 624.5 432.1 625.4L429.2 627.8C428.8 628.1 428.2 628.1 427.9 627.7 427.9 627.7 427.9 627.7 427.8 627.6L425.7 624.4C424.9 623.2 423.5 622.7 422.2 623.3L418.7 624.7C418.2 624.9 417.7 624.6 417.5 624.2L417.5 624.1 416.5 620.4C416.1 619 414.9 618.1 413.5 618.2L409.7 618.4C409.2 618.4 408.7 618 408.7 617.5L408.7 617.4 408.9 613.6C409 612.2 408.1 610.9 406.7 610.6L403 609.6C402.7 609.5 402.5 609.4 402.4 609.1 402.3 608.9 402.3 608.6 402.4 608.3L403.8 604.8C404.3 603.5 403.8 602 402.7 601.3L399.5 599.2C399.1 598.9 398.9 598.3 399.2 597.9 399.2 597.9 399.2 597.8 399.3 597.8L401.7 594.9C402.6 593.8 402.6 592.3 401.7 591.2L399.3 588.3C399 587.9 399 587.3 399.4 587 399.4 587 399.5 587 399.5 586.9L402.7 584.9C403.9 584.1 404.4 582.7 403.8 581.4L402.4 577.9C402.3 577.7 402.3 577.4 402.4 577.1 402.5 576.9 402.7 576.7 403 576.6L406.7 575.6C408.1 575.2 409 574 408.9 572.6L408.7 568.8C408.7 568.5 408.8 568.3 409 568.1 409.2 567.9 409.5 567.8 409.7 567.8L413.5 568C414.9 568.1 416.1 567.2 416.5 565.8L417.5 562.1C417.6 561.8 417.7 561.6 418 561.5 418.2 561.4 418.5 561.4 418.8 561.5L422.3 562.9C423.6 563.4 425.1 562.9 425.8 561.8L427.8 558.6C428.1 558.2 428.7 558 429.1 558.3 429.1 558.3 429.2 558.3 429.2 558.4L432.1 560.8C433.2 561.7 434.7 561.7 435.8 560.8L438.7 558.4C439.1 558.1 439.7 558.1 440 558.5 440 558.5 440 558.5 440.1 558.6L442.2 561.8C443 563 444.4 563.5 445.7 562.9L449.2 561.5C449.7 561.3 450.2 561.6 450.4 562L450.4 562.1 451.4 565.8C451.8 567.2 453 568.1 454.4 568L458.2 567.8C458.5 567.8 458.7 567.9 458.9 568.1 459.1 568.3 459.2 568.6 459.2 568.8L459 572.6C458.9 574 459.8 575.3 461.2 575.6L464.9 576.6C465.4 576.7 465.7 577.3 465.6 577.8L465.6 577.9 464.2 581.4C463.7 582.7 464.2 584.2 465.3 584.9L468.5 586.9C468.9 587.2 469.1 587.8 468.8 588.2 468.8 588.2 468.8 588.3 468.7 588.3L466.3 591.2C465.4 592.3 465.4 593.8 466.3 594.9L468.7 597.8C469.2 598.2 469.1 598.8 468.6 599.2 468.6 599.2 465.4 601.3 465.4 601.3Z"/><path d="M434 568C420.2 568 409 579.2 409 593 409 606.8 420.2 618 434 618 447.8 618 459 606.8 459 593 459 579.2 447.8 568 434 568ZM434 616C421.3 616 411 605.7 411 593 411 580.3 421.3 570 434 570 446.7 570 457 580.3 457 593L457 593C457 605.7 446.7 616 434 616Z"/><path d="M431 598.6 422.7 590.3 421.3 591.7 431 601.4 447.7 584.7 446.3 583.3Z"/></g></svg>