<svg width="96" height="96" xmlns="http://www.w3.org/2000/svg" xmlns:xlink="http://www.w3.org/1999/xlink" xml:space="preserve" overflow="hidden"><g transform="translate(-592 -312)"><path d="M660 332 660 327C660 326.448 659.552 326 659 326 658.448 326 658 326.448 658 327L658 332 622 332 622 327C622 326.448 621.552 326 621 326 620.448 326 620 326.448 620 327L620 332 606 332 606 394 674 394 674 332ZM672 392 608 392 608 348 672 348ZM608 346 608 334 620 334 620 338C620 338.552 620.448 339 621 339 621.552 339 622 338.552 622 338L622 334 658 334 658 338C658 338.552 658.448 339 659 339 659.552 339 660 338.552 660 338L660 334 672 334 672 346Z"/><path d="M633 386 666 386 666 354 614 354 614 386 633 386ZM633 384 633 376 647 376 647 384ZM633 366 647 366 647 374 633 374ZM631 374 616 374 616 366 631 366ZM649 366 664 366 664 374 649 374ZM649 384 649 376 664 376 664 384ZM664 356 664 364 649 364 649 356ZM647 356 647 364 633 364 633 356ZM631 356 631 364 616 364 616 356ZM616 384 616 376 631 376 631 384Z"/></g></svg>