<?xml version="1.0" encoding="UTF-8"?>
<svg id="Ebene_2" xmlns="http://www.w3.org/2000/svg" viewBox="0 0 71.77 59">
  <defs>
    <style>
      .cls-1 {
        fill: #25bee1;
      }

      .cls-2 {
        fill: #27e0e0;
      }
    </style>
  </defs>
  <g id="Ebene_1-2" data-name="Ebene_1">
    <g>
      <path class="cls-2" d="M39.21,19.03l6.41,9.6v-13.59h0C45.59,6.72,38.9,0,30.66,0H12.16C5.45,0,0,5.36,0,11.98v29.73c0,6.61,5.45,11.98,12.16,11.98l.09-41.52h14.16c5.13,0,9.93,2.57,12.79,6.86h0Z"/>
      <path class="cls-1" d="M59.61,5.31l-.09,41.52h-14.16c-5.13,0-9.93-2.57-12.79-6.86l-6.41-9.59v13.59h0c.03,8.31,6.72,15.03,14.96,15.03h18.49c6.72,0,12.16-5.36,12.16-11.98v-29.73c0-6.61-5.45-11.98-12.16-11.98h0Z"/>
    </g>
  </g>
</svg>