<?xml version="1.0" encoding="UTF-8"?>
<svg id="Ebene_2" data-name="Ebene 2" xmlns="http://www.w3.org/2000/svg" viewBox="0 0 121.56 121.56">
  <defs>
    <style>
      .cls-1 {
        fill: #c8c8c8;
        fill-rule: evenodd;
        stroke-width: 0px;
      }
    </style>
  </defs>
  <g id="Ebene_1-2" data-name="Ebene 1">
    <path class="cls-1" d="M110.27,56.17c-.04-.48-.11-.95-.17-1.43-.12-1.06-.28-2.09-.47-3.12-.11-.53-.2-1.05-.31-1.58-.23-1.01-.49-2.02-.78-3.02-.13-.45-.24-.9-.38-1.35-.42-1.34-.9-2.65-1.43-3.92-.23-.55-.49-1.07-.73-1.6-.35-.76-.7-1.52-1.08-2.25-.35-.65-.7-1.29-1.07-1.94-.32-.55-.67-1.12-1.02-1.66-.43-.7-.87-1.38-1.34-2.05-.25-.36-.53-.71-.79-1.07-1.95-2.6-4.12-5.01-6.51-7.19-.16-.13-.3-.28-.46-.41-.85-.76-1.73-1.49-2.65-2.19-.05-.04-.08-.07-.14-.11-3.92-2.98-8.3-5.42-13.02-7.15-1.4,2.25-2.84,5.1-4.51,6.07-2.42,1.37-2.24,6.9,2.42,6.38,0,0-1.38,1.38,0,6.39,1.38,5.01,3.69,6.1,10.53,3.29,2.94-1.22,5.16-.58,4.84,2.42-.7,6.38-5.62,6.11-1.9,16.4,2.25,6.21,7.77,8.63,9.85,13.47,1.14,2.65,5.51,5.1,9.22,6.76.4-1.3.73-2.62,1.02-3.97.11-.51.2-1.04.29-1.55.19-1,.35-2.01.47-3.03.06-.49.12-.96.16-1.46.14-1.48.24-3,.24-4.53s-.1-3.09-.24-4.61M60.78,116.03c-30.52,0-55.25-24.73-55.25-55.25S30.26,5.52,60.78,5.52s55.25,24.74,55.25,55.25-24.74,55.25-55.25,55.25M60.78,0C27.21,0,0,27.21,0,60.78s27.21,60.78,60.78,60.78,60.78-27.21,60.78-60.78S94.35,0,60.78,0M47.31,54.74c.35-3.97,6.73-8.11,11.05-10.01,4.32-1.9,8.29-2.6,7.77-5.87-.52-3.29-1.73-5.69-8.46-5.69s-3.8,8.97-9.33,3.62c-5.52-5.36,1.2-3.97,3.97-5.18,2.76-1.22,5.52-6.22.69-6.57-4.83-.34-3.79,2.07-7.59.7-3.8-1.38-5.52,4.84-7.94,3.96-1.6-.57-5.87-3.78-8.71-6.93-5.72,4.81-10.31,10.92-13.4,17.82.82,9.29,5.87,14.15,5.87,14.15,0,0,2.6,6.04,18.14,13.47,0,0,2.94.17-.52-3.29-3.45-3.44-7.26-7.76-2.94-10.01,4.31-2.24,5.52-2.07,6.56,2.07,1.03,4.15,4.49,1.73,4.84-2.24M91.42,72.43c-1.99,1.22-1.9,3.89-.25,5.36,1.64,1.47,4.92,3.37,5.96,0,1.04-3.37-3.72-6.56-5.7-5.36M67.69,72.86c-5.87-5.01-5.18-7.25-12.61-7.25s-12.08,1.72-10.18,12.08c1.9,10.36,7.43,5.69,6.91,13.65-.52,7.93,1.38,9.66,2.59,11.55,1.22,1.9,4.83,7.44,6.21-.34,1.38-7.77,3.98-12.1,6.91-15.89,2.94-3.8,6.04-8.81.18-13.82"/>
  </g>
</svg>