<?xml version="1.0" encoding="UTF-8"?>
<svg id="Ebene_2" data-name="Ebene 2" xmlns="http://www.w3.org/2000/svg" viewBox="0 0 100.8 99.81">
  <defs>
    <style>
      .cls-1 {
        fill: #25bee0;
        fill-rule: evenodd;
        stroke-width: 0px;
      }
    </style>
  </defs>
  <g id="Ebene_1-2" data-name="Ebene 1">
    <path class="cls-1" d="M76.38,95.46c-2.87,0-5.67-.63-8.31-1.87-.25-.11-.5-.21-.76-.28-26.05-13.15-47.62-34.52-60.92-60.3-.08-.26-.17-.52-.29-.78-1.25-2.62-1.89-5.39-1.89-8.23C4.22,13,13.95,4.72,20.26,4.72c.83,0,1.37.41,1.62.67.06.06.16.17.31.41.08.13.17.25.26.37l15.09,19.21c.12.15.24.29.38.41.25.26.67.79.67,1.61,0,.4-.11.78-.33,1.13l-5.11,5.01s-.05.05-.07.07c-1.85,1.73-2.9,4.12-2.9,6.62,0,2.34.92,4.58,2.52,6.25.06.1.12.19.18.27,5.63,7.71,12.55,14.54,20.57,20.29.06.05.13.09.19.13,1.69,1.61,3.97,2.54,6.35,2.54s4.69-.95,6.41-2.62c.09-.07.17-.16.26-.24l5.13-5.12c.36-.22.74-.34,1.14-.34.83,0,1.37.42,1.62.67.14.13.28.25.43.37l19.39,14.94c.13.09.26.19.39.27.24.15.35.25.41.3.25.25.67.79.67,1.6,0,.16,0,.31.03.46-.36,6.25-8.6,15.46-19.46,15.46M100.8,79.36h-.04c0-1.87-.77-3.58-2.01-4.8-.37-.37-.78-.67-1.22-.94l-19.4-14.94c-1.25-1.24-2.96-2-4.86-2-1.55,0-2.97.53-4.12,1.39l-5.41,5.41v-.02c-.85.93-2.06,1.53-3.41,1.53-1.55,0-2.92-.77-3.75-1.94-.03.05-.07.09-.1.14-7.49-5.38-14.12-11.86-19.54-19.27.05-.04.1-.08.15-.12-1.19-.83-1.98-2.19-1.98-3.75,0-1.38.64-2.62,1.62-3.46h0s5.39-5.3,5.39-5.3c.87-1.14,1.4-2.53,1.4-4.07,0-1.89-.77-3.59-2.01-4.81L26.43,3.2c-.28-.43-.58-.85-.95-1.21-1.24-1.24-2.96-2-4.86-2C11.46,0,0,10.66,0,23.82c0,3.65.85,7.09,2.33,10.18l-.08.07c13.78,27.19,36.69,49.87,64.15,63.53l.07-.08c3.12,1.46,6.59,2.3,10.27,2.3,13.29,0,24.06-11.35,24.06-20.42v-.04"/>
  </g>
</svg>