<?xml version="1.0" encoding="UTF-8"?>
<svg id="Ebene_2" data-name="Ebene 2" xmlns="http://www.w3.org/2000/svg" viewBox="0 0 481.45 107.39">
  <defs>
    <style>
      .cls-1 {
        fill: #27e0e0;
      }

      .cls-1, .cls-2, .cls-3 {
        stroke-width: 0px;
      }

      .cls-2 {
        fill: #25bee1;
      }

      .cls-3 {
        fill: #fff;
      }
    </style>
  </defs>
  <g id="Ebene_1-2" data-name="Ebene 1">
    <g>
      <path class="cls-1" d="M64.47,34.29l10.53,15.78v-22.35h0c-.04-13.66-11.04-24.71-24.6-24.71h-30.4C8.95,3,0,11.81,0,22.69v48.88c0,10.88,8.95,19.69,20,19.69l.15-68.26h23.29c8.44,0,16.32,4.23,21.03,11.28h0Z"/>
      <path class="cls-2" d="M98,11.73l-.15,68.27h-23.29c-8.44,0-16.32-4.23-21.03-11.28l-10.53-15.77v22.34h0c.04,13.66,11.04,24.71,24.6,24.71h30.4c11.05,0,20-8.81,20-19.69V31.43c0-10.88-8.95-19.69-20-19.69h0Z"/>
      <path class="cls-3" d="M274.57,52c0-18.51-12.2-30.79-29.33-30.79s-29.79,12.6-29.79,30.11,12.77,30.22,31.92,30.22c9.86,0,18.03-3.35,23.4-9.6l-5.94-6.91c-4.37,4.8-10.19,7.15-17.13,7.15-11.76,0-20.16-6.92-21.5-17.18h48.15c.11-1.12.21-2.45.21-3h0ZM226.21,47c1.12-10.04,8.73-16.95,19.03-16.95s17.91,7.02,19.04,16.95h-38.07Z"/>
      <path class="cls-3" d="M463.74,43.31l-5.78-7.49,10.54-13.82h11.76l-16.52,21.31Z"/>
      <path class="cls-3" d="M481.45,81h-12.19l-17.11-22.6-.12.16-5.67,7.39-11.54,15.04h-11.96l17.6-22.73,5.7-7.35.06-.08-22.25-28.84h11.97l16.32,21.27.18.25,5.41,7.33h0l23.6,30.16Z"/>
      <path class="cls-3" d="M173,22c-15.46,0-28,12.53-28,28v31h10v-31.05c0-9.59,7.85-17.38,17.5-17.38s17.5,7.8,17.5,17.38v31.05h11v-31c0-15.47-12.53-28-28-28h0Z"/>
      <path class="cls-3" d="M414,22v57.42c0,15.42-12.96,27.97-28.9,27.97-13.58,0-25.01-9.14-28.07-21.39h12.16c2.63,6.3,8.92,10.74,16.24,10.74,9.68,0,17.57-7.77,17.57-17.32v-4.43c-4.84,3.78-10.96,6.03-17.61,6.03-15.68,0-28.39-12.54-28.39-28v-31.01h11v31.05c0,9.59,7.85,17.37,17.49,17.37s17.51-7.79,17.51-17.37v-31.05h11Z"/>
      <path class="cls-3" d="M345,0h-10v29.12c-5.17-4.64-11.96-7.46-19.38-7.46-16.24,0-29.39,13.44-29.39,30.01s13.15,30.01,29.39,30.01,29.38-13.44,29.38-30.01c0-.22,0-.45,0-.67h0V0h0ZM314.73,70.87c-10.8,0-19.58-8.74-19.58-19.5s8.78-19.5,19.58-19.5,19.57,8.74,19.57,19.5-8.78,19.5-19.57,19.5Z"/>
    </g>
  </g>
</svg>