<svg width="101" height="102" xmlns="http://www.w3.org/2000/svg" xmlns:xlink="http://www.w3.org/1999/xlink" xml:space="preserve" overflow="hidden"><defs><clipPath id="clip0"><rect x="2342" y="430" width="101" height="102"/></clipPath></defs><g clip-path="url(#clip0)" transform="translate(-2342 -430)"><path d="M2438.41 499.544 2346.59 499.544 2346.59 439.274C2346.59 436.715 2348.64 434.637 2351.18 434.637L2433.82 434.637C2436.36 434.637 2438.41 436.715 2438.41 439.274 2438.41 439.274 2438.41 499.544 2438.41 499.544ZM2438.41 508.819C2438.41 511.378 2436.36 513.456 2433.82 513.456L2351.18 513.456C2348.64 513.456 2346.59 511.378 2346.59 508.819L2346.59 504.181 2438.41 504.181C2438.41 504.181 2438.41 508.819 2438.41 508.819ZM2397.09 527.363 2387.91 527.363 2387.91 518.093 2397.09 518.093C2397.09 518.093 2397.09 527.363 2397.09 527.363ZM2433.82 430 2351.18 430C2346.11 430 2342 434.151 2342 439.274L2342 508.819C2342 513.938 2346.11 518.093 2351.18 518.093L2383.32 518.093 2383.32 527.363 2376.43 527.363C2375.17 527.363 2374.14 528.402 2374.14 529.682 2374.14 530.961 2375.17 532 2376.43 532L2408.57 532C2409.83 532 2410.86 530.961 2410.86 529.682 2410.86 528.402 2409.83 527.363 2408.57 527.363L2401.68 527.363 2401.68 518.093 2433.82 518.093C2438.89 518.093 2443 513.938 2443 508.819L2443 439.274C2443 434.151 2438.89 430 2433.82 430M2392.38 454.56C2392.08 454.05 2391.63 453.72 2391.12 453.545L2391.18 453.318C2391.02 453.333 2390.87 453.37 2390.72 453.408L2381.58 450.938C2381.01 450.783 2380.38 450.844 2379.83 451.165 2378.73 451.807 2378.36 453.224 2379 454.334 2379.31 454.891 2379.82 455.259 2380.39 455.415L2383.92 456.369C2380.77 458.881 2378.73 462.711 2378.73 467.093 2378.73 472.883 2382.24 477.841 2387.22 479.933L2388.45 475.376C2385.42 473.865 2383.32 470.739 2383.32 467.093 2383.32 464.099 2384.75 461.478 2386.93 459.793L2385.65 464.619C2385.5 465.195 2385.56 465.823 2385.88 466.38 2386.51 467.49 2387.92 467.868 2389.02 467.225 2389.56 466.904 2389.93 466.394 2390.09 465.818L2392.61 456.322C2392.76 455.746 2392.69 455.118 2392.38 454.56M2404.76 478.847 2401.06 477.846C2404.22 475.329 2406.27 471.485 2406.27 467.093 2406.27 461.375 2402.85 456.463 2397.96 454.334L2396.72 458.905C2399.65 460.449 2401.68 463.518 2401.68 467.093 2401.68 469.988 2400.34 472.538 2398.27 474.228L2399.49 469.638C2399.64 469.067 2399.58 468.434 2399.26 467.877 2398.63 466.767 2397.23 466.389 2396.13 467.032 2395.58 467.353 2395.21 467.868 2395.06 468.439L2392.54 477.94 2392.54 477.94C2392.39 478.516 2392.45 479.144 2392.77 479.697 2393.06 480.216 2393.53 480.556 2394.06 480.726L2394.02 480.844C2394.1 480.835 2394.17 480.821 2394.24 480.802L2403.57 483.323C2404.13 483.475 2404.76 483.413 2405.31 483.092 2406.41 482.45 2406.78 481.033 2406.15 479.928 2405.83 479.371 2405.32 478.998 2404.76 478.847" fill="#2B2B2B" fill-rule="evenodd"/></g></svg>