<svg width="481" height="108" xmlns="http://www.w3.org/2000/svg" xmlns:xlink="http://www.w3.org/1999/xlink" xml:space="preserve" overflow="hidden"><defs><clipPath id="clip0"><rect x="205" y="467" width="481" height="108"/></clipPath></defs><g clip-path="url(#clip0)" transform="translate(-205 -467)"><path d="M63.7926 34.3667 74.2393 49.8955 74.2393 27.899 74.2393 27.899C74.1983 14.4532 63.2867 3.57341 49.8408 3.57341L19.6902 3.57341C8.81501 3.56885 0 12.3839 0 23.2636L0 72.1473C0 83.0224 8.81501 91.8375 19.6902 91.8375L19.8361 23.259 42.931 23.259C51.2993 23.259 59.1162 27.4204 63.788 34.3621Z" fill="#27E0E0" transform="matrix(1.00431 0 0 1 205 467.055)"/><path d="M97.1565 12.4066 97.0107 80.9851 73.9157 80.9851C65.5474 80.9851 57.7306 76.8237 53.0587 69.882L42.612 54.3531 42.612 76.3497 42.612 76.3497C42.653 89.7955 53.5646 100.675 67.0105 100.675L97.1565 100.675C108.032 100.675 116.847 91.8602 116.847 80.9851L116.847 32.1014C116.847 21.2262 108.032 12.4112 97.1565 12.4112Z" fill="#25BEE1" transform="matrix(1.00431 0 0 1 205 467.055)"/><path d="M272.905 52.2155C272.905 34.0431 260.758 21.7686 243.698 21.7686 226.638 21.7686 214.04 34.3667 214.04 51.8782 214.04 69.3897 226.752 82.0972 245.822 82.0972 255.635 82.0972 263.771 78.7471 269.122 72.4982L263.211 65.5884C258.862 70.3879 253.06 72.7352 246.159 72.7352 234.45 72.7352 226.086 65.8118 224.751 55.4516L272.696 55.4516C272.81 54.4398 272.91 53.1043 272.91 52.2155ZM224.746 47.7533C225.858 37.7168 233.434 30.807 243.694 30.807 253.953 30.807 261.529 37.8307 262.654 47.7533L224.746 47.7533Z" fill="#2B2B2B" transform="matrix(1.00431 0 0 1 205 467.055)"/><path d="M461.261 43.642 455.504 36.1534 466.001 22.3292 477.715 22.3292 461.261 43.642Z" fill="#2B2B2B" transform="matrix(1.00431 0 0 1 205 467.055)"/><path d="M478.937 81.4226 466.776 81.4226 449.716 58.788 449.593 58.9475 443.941 66.3541 432.432 81.4226 420.509 81.4226 438.061 58.6558 443.75 51.2948 443.809 51.2127 421.621 22.3292 433.558 22.3292 449.83 43.6284 450.008 43.8745 455.404 51.2127 455.404 51.2127 478.937 81.4226Z" fill="#2B2B2B" transform="matrix(1.00431 0 0 1 205 467.055)"/><path d="M171.273 22.3292C155.785 22.3292 143.233 34.8817 143.233 50.3741L143.233 81.4272 153.898 81.4272 153.898 50.3741C153.898 40.7888 161.692 32.9902 171.277 32.9902 180.863 32.9902 188.657 40.7888 188.657 50.3741L188.657 81.4272 199.322 81.4272 199.322 50.3741C199.322 34.8817 186.77 22.3292 171.282 22.3292Z" fill="#2B2B2B" transform="matrix(1.00431 0 0 1 205 467.055)"/><path d="M411.676 22.3885 411.676 79.8866C411.676 95.3288 399.109 107.895 383.658 107.895 370.486 107.895 359.405 98.7473 356.438 86.4728L367.619 86.4728C370.217 92.7764 376.429 97.2295 383.658 97.2295 393.221 97.2295 401.01 89.4537 401.01 79.8866L401.01 75.4472C396.233 79.2348 390.19 81.4819 383.622 81.4819 368.134 81.4819 355.581 68.9294 355.581 53.4416L355.581 22.3885 366.247 22.3885 366.247 53.4416C366.247 63.0269 374.045 70.8163 383.622 70.8163 393.198 70.8163 401.01 63.0269 401.01 53.4416L401.01 22.3885 411.676 22.3885Z" fill="#2B2B2B" transform="matrix(1.00431 0 0 1 205 467.055)"/><path d="M343.047 0 332.787 0 332.787 29.2664C327.482 24.6036 320.513 21.7686 312.896 21.7686 296.228 21.7686 282.732 35.2783 282.732 51.9329 282.732 68.5875 296.228 82.0972 312.896 82.0972 329.565 82.0972 343.052 68.5875 343.052 51.9329 343.052 51.7096 343.052 51.4817 343.042 51.2583L343.052 51.2583 343.052 0ZM312.892 71.4317C302.135 71.4317 293.393 62.6896 293.393 51.9329 293.393 41.1762 302.135 32.4341 312.892 32.4341 323.649 32.4341 332.381 41.1762 332.381 51.9329 332.381 62.6896 323.639 71.4317 312.892 71.4317Z" fill="#2B2B2B" transform="matrix(1.00431 0 0 1 205 467.055)"/></g></svg>