<?xml version="1.0" encoding="UTF-8"?>
<svg id="Ebene_2" xmlns="http://www.w3.org/2000/svg" viewBox="0 0 1152 590">
  <defs>
    <style>
      .cls-1, .cls-2 {
        fill: none;
      }

      .cls-3 {
        fill: #c8c8c8;
      }

      .cls-4 {
        fill: #25bee0;
      }

      .cls-2 {
        stroke: #c8c8c8;
        stroke-miterlimit: 10;
        stroke-width: .65px;
      }
    </style>
  </defs>
  <g id="Ebene_1-2" data-name="Ebene_1">
    <path class="cls-3" d="M790.36,404.54v126.13h-171.59v-126.13h171.59M791.01,403.89h-172.89v127.43h172.89v-127.43h0Z"/>
    <path class="cls-3" d="M579.77,435.89v112.98h-249.58v-112.98h249.58M580.42,435.24h-250.88v114.28h250.88v-114.28h0Z"/>
    <path class="cls-3" d="M1089.34,222.49v95.79h-233.99v-95.79h233.99M1089.99,221.84h-235.29v97.09h235.29v-97.09h0Z"/>
    <path class="cls-3" d="M291.19,383.3v185.8H57.2v-185.8h233.99M291.84,382.65H56.55v187.1h235.29v-187.1h0Z"/>
    <path class="cls-3" d="M552.47,22.24v142.31h-233.99V22.24h233.99M553.12,21.59h-235.29v143.61h235.29V21.59h0Z"/>
    <path class="cls-3" d="M1108.84,21.23v170.63h-226.19V21.23h226.19M1109.49,20.58h-227.49v171.93h227.49V20.58h0Z"/>
    <path class="cls-3" d="M279.49,39.44v166.59H29.91V39.44h249.58M280.14,38.79H29.26v167.89h250.88V38.79h0Z"/>
    <path class="cls-3" d="M843.66,43.48v112.98h-252.18V43.48h252.18M844.31,42.83h-253.48v114.28h253.48V42.83h0Z"/>
    <path class="cls-3" d="M265.35,236.65v116.02H101.6v-116.02h163.75M266,236H100.95v117.32h165.05v-117.32h0Z"/>
    <path class="cls-3" d="M1116.64,348.91v215.13h-287.28v-215.13h287.28M1117.29,348.26h-288.58v216.43h288.58v-216.43h0Z"/>
    <path class="cls-3" d="M279.49,39.44v28.03H29.91v-28.03h249.58M280.14,38.79H29.26v29.33h250.88v-29.33h0Z"/>
    <path class="cls-3" d="M552.47,22.24v28.03h-233.99v-28.03h233.99M553.12,21.59h-235.29v29.33h235.29v-29.33h0Z"/>
    <path class="cls-3" d="M291.19,383.3v28.03H57.2v-28.03h233.99M291.84,382.65H56.55v29.33h235.29v-29.33h0Z"/>
    <path class="cls-3" d="M843.66,43.48v28.03h-252.18v-28.03h252.18M844.31,42.83h-253.48v29.33h253.48v-29.33h0Z"/>
    <path class="cls-3" d="M790.36,404.54v28.03h-171.59v-28.03h171.59M791.01,403.89h-172.89v29.33h172.89v-29.33h0Z"/>
    <path class="cls-3" d="M579.77,435.89v28.03h-249.58v-28.03h249.58M580.42,435.24h-250.88v29.33h250.88v-29.33h0Z"/>
    <path class="cls-3" d="M265.35,236.65v28.03H101.6v-28.03h163.75M266,236H100.95v29.33h165.05v-29.33h0Z"/>
    <path class="cls-3" d="M1116.64,348.91v28.03h-287.28v-28.03h287.28M1117.29,348.26h-288.58v29.33h288.58v-29.33h0Z"/>
    <path class="cls-3" d="M1089.34,222.49v28.03h-233.99v-28.03h233.99M1089.99,221.84h-235.29v29.33h235.29v-29.33h0Z"/>
    <path class="cls-3" d="M1108.84,21.23v28.03h-226.19v-28.03h226.19M1109.49,20.58h-227.49v29.33h227.49v-29.33h0Z"/>
    <line class="cls-2" x1="500.05" y1="164.91" x2="552.29" y2="237.85"/>
    <line class="cls-2" x1="280.39" y1="180.54" x2="514.78" y2="258.7"/>
    <line class="cls-2" x1="265.5" y1="294.13" x2="514.78" y2="294.13"/>
    <line class="cls-2" x1="292.44" y1="422.3" x2="514.78" y2="321.22"/>
    <line class="cls-2" x1="516.12" y1="434.81" x2="557.64" y2="336.85"/>
    <line class="cls-2" x1="651.4" y1="404.59" x2="608.54" y2="336.85"/>
    <line class="cls-2" x1="829.54" y1="384.79" x2="642.03" y2="311.84"/>
    <line class="cls-2" x1="854.99" y1="283.71" x2="642.03" y2="283.71"/>
    <line class="cls-2" x1="881.78" y1="176.37" x2="642.03" y2="256.61"/>
    <line class="cls-2" x1="658.1" y1="156.57" x2="605.86" y2="237.85"/>
    <path class="cls-4" d="M642.04,237.98v98.74h-127.28v-98.74h127.28M642.69,237.33h-128.58v100.04h128.58v-100.04h0Z"/>
    <rect class="cls-1" width="1152" height="590"/>
  </g>
</svg>