<?xml version="1.0" encoding="UTF-8"?>
<svg id="Ebene_2" data-name="Ebene 2" xmlns="http://www.w3.org/2000/svg" viewBox="0 0 99.81 82.03">
  <defs>
    <style>
      .cls-1 {
        fill: #25bee0;
        fill-rule: evenodd;
        stroke-width: 0px;
      }
    </style>
  </defs>
  <g id="Ebene_1-2" data-name="Ebene 1">
    <path class="cls-1" d="M20.6,77.08c1.06-6.41,6.65-8.98,12.37-11.04l.18-.06c4.08-1.1,11.34-5.47,11.34-14.84,0-7.96-3.21-11.84-4.93-13.92-.34-.43-.76-.96-.67-.84-.14-.31-.82-2.1.16-6.25.46-1.95-.32-3.02-.32-3.02-1.24-2.8-3.54-8-1.81-12.21,2.32-5.82,4.38-6.97,8.1-8.66.22-.1.43-.21.63-.34.7-.46,3.68-1.74,7.05-1.74,1.69,0,3.11.33,4.23.97,1.35.76,2.64,2.21,4.6,6.9,3.64,8.35,1.34,13.02.17,14.63-.77,1.08-1.04,2.43-.74,3.73.9,3.81.32,5.44.17,5.75-.04.05-.58.74-.86,1.08-1.72,2.09-4.94,5.97-4.94,13.92,0,9.38,7.26,13.75,11.34,14.84l.18.06c5.72,2.06,11.31,4.63,12.37,11.04H20.6ZM68,62s-8.13-1.95-8.13-10.48c0-7.49,3.34-10.13,4.63-11.95,0,0,2.65-2.33.87-9.86,2.96-4.12,3.92-10.83.3-19.12-2.02-4.84-3.8-7.5-6.52-9.04-1.99-1.14-4.26-1.55-6.46-1.55-4.1,0-7.99,1.46-9.54,2.48-4.54,2.05-7.59,3.93-10.45,11.12-2.48,6.03.47,12.57,1.93,15.86-1.77,7.53.68,10.12.68,10.12,1.29,1.82,4.63,4.46,4.63,11.95,0,8.53-8.13,10.48-8.13,10.48-5.16,1.87-15.94,5.44-15.94,17.74,0,0,0,2.28,2.27,2.28h63.52c2.27,0,2.27-2.28,2.27-2.28,0-12.3-10.78-15.87-15.94-17.74M90.18,56.88s-5.08-1.17-5.08-7.8c0-5.83,1.75-7.89,2.78-9.3,0,0,1.97-2.02.55-7.87,1.16-2.56,3.53-7.65,1.54-12.34-2.29-5.58-3.81-7.06-7.44-8.65-1.24-.79-4.35-1.93-7.63-1.93-1.55,0-3.13.29-4.57.94.58,1.47,1.07,2.94,1.42,4.38.06-.03.12-.08.17-.11.77-.43,1.78-.65,2.98-.65,2.35,0,4.63.86,5.19,1.22.2.13.41.24.62.34,2.23.98,3.07,1.34,5.06,6.21,1.2,2.83-.51,6.59-1.43,8.61-.43.94-.57,2.09-.33,3.07.62,2.56.33,3.76.23,4.05,0,.02-.02.03-.04.05l-.15.21c-1.22,1.66-3.5,4.76-3.5,11.78,0,7.84,5.25,11.31,8.29,12.16,2.9,1.04,5.57,2.67,6.25,6.95h-9.81c.87,1.39,1.59,2.92,2.13,4.94h10.11c2.27-.34,2.27-2.61,2.27-2.61,0-9.11-5.5-12.2-9.63-13.64M10.96,61.24c3.04-.85,8.29-4.32,8.29-12.16,0-7.02-2.28-10.12-3.5-11.78l-.15-.21s-.03-.03-.04-.05c-.1-.3-.39-1.49.24-4.05.24-.99.1-2.13-.33-3.07-.92-2.02-2.63-5.78-1.43-8.61,1.99-4.86,2.82-5.23,5.06-6.21.22-.1.42-.21.62-.34.56-.36,2.85-1.22,5.19-1.22,1.13,0,2.07.21,2.82.59.2-.79.43-1.57.75-2.36.28-.69.57-1.29.86-1.91-1.41-.61-2.93-.88-4.43-.88-3.28,0-6.39,1.14-7.63,1.93-3.63,1.59-5.15,3.06-7.44,8.65-1.99,4.69.38,9.78,1.54,12.34-1.42,5.85.55,7.87.55,7.87,1.03,1.41,2.78,3.47,2.78,9.3,0,6.63-5.09,7.8-5.09,7.8-4.13,1.44-9.63,4.53-9.63,13.64,0,0,0,2.27,2.27,2.61h10.11c.55-2.02,1.26-3.55,2.13-4.94H4.7c.68-4.28,3.36-5.91,6.25-6.95"/>
  </g>
</svg>