<svg width="73" height="72" xmlns="http://www.w3.org/2000/svg" xmlns:xlink="http://www.w3.org/1999/xlink" xml:space="preserve" overflow="hidden"><g transform="translate(-668 -22)"><path d="M13.5 6 13.5 66 58.5 66 58.5 22.1895 42.3105 6ZM42.7627 8.57325 55.9268 21.7372C55.9297 21.7402 55.9296 21.745 55.9267 21.7478 55.9253 21.7492 55.9234 21.75 55.9215 21.75L42.75 21.75 42.75 8.5785C42.7501 8.57438 42.7534 8.57107 42.7576 8.57107 42.7595 8.57115 42.7614 8.5719 42.7627 8.57325ZM15 64.5 15 7.5 41.25 7.5 41.25 23.25 57 23.25 57 64.5Z" transform="matrix(-1.01389 0 0 1 741 22)"/></g></svg>