<svg width="96" height="96" xmlns="http://www.w3.org/2000/svg" xmlns:xlink="http://www.w3.org/1999/xlink" xml:space="preserve" overflow="hidden"><g transform="translate(-627 -337)"><path d="M675 353C682.732 353 689 359.268 689 367 689 374.732 682.732 381 675 381 667.268 381 661 374.732 661 367 661.008 359.271 667.271 353.008 675 353M675 351C666.163 351 659 358.163 659 367 659 375.837 666.163 383 675 383 683.837 383 691 375.837 691 367 691 358.163 683.837 351 675 351Z"/><path d="M707 419 705 419 705 403.5C704.952 401.376 703.952 399.386 702.275 398.081 697.889 394.716 692.868 392.273 687.513 390.9 683.459 389.652 679.242 389.012 675 389 670.759 389.074 666.548 389.713 662.476 390.9 657.177 392.452 652.178 394.886 647.688 398.1 646.028 399.406 645.042 401.388 645 403.5L645 419 643 419 643 403.5C643.05 400.769 644.326 398.205 646.476 396.519 651.167 393.151 656.395 390.601 661.937 388.977 666.184 387.74 670.577 387.075 675 387 679.432 387.011 683.838 387.678 688.075 388.979 693.685 390.424 698.943 392.991 703.533 396.525 705.678 398.211 706.952 400.772 707 403.5Z"/></g></svg>