<svg width="102" height="65" xmlns="http://www.w3.org/2000/svg" xmlns:xlink="http://www.w3.org/1999/xlink" xml:space="preserve" overflow="hidden"><defs><clipPath id="clip0"><rect x="1377" y="1995" width="102" height="65"/></clipPath></defs><g clip-path="url(#clip0)" transform="translate(-1377 -1995)"><path d="M1428 2055.36C1402.4 2055.36 1381.64 2035.46 1381.64 2027.5 1381.64 2019.54 1402.4 1999.64 1428 1999.64 1453.61 1999.64 1474.36 2019.54 1474.36 2027.5 1474.36 2035.46 1453.61 2055.36 1428 2055.36M1428 1995C1399.83 1995 1377 2018.21 1377 2027.5 1377 2036.79 1399.83 2060 1428 2060 1456.17 2060 1479 2036.79 1479 2027.5 1479 2018.21 1456.17 1995 1428 1995M1428 2046.07C1417.76 2046.07 1409.46 2037.76 1409.46 2027.5 1409.46 2017.24 1417.76 2008.93 1428 2008.93 1438.24 2008.93 1446.54 2017.24 1446.54 2027.5 1446.54 2037.76 1438.24 2046.07 1428 2046.07M1428 2004.29C1415.19 2004.29 1404.82 2014.68 1404.82 2027.5 1404.82 2040.32 1415.19 2050.71 1428 2050.71 1440.81 2050.71 1451.18 2040.32 1451.18 2027.5 1451.18 2014.68 1440.81 2004.29 1428 2004.29M1428 2020.54C1424.16 2020.54 1421.04 2023.65 1421.04 2027.5 1421.04 2031.35 1424.16 2034.46 1428 2034.46 1431.84 2034.46 1434.96 2031.35 1434.96 2027.5 1434.96 2023.65 1431.84 2020.54 1428 2020.54" fill="#2B2B2B" fill-rule="evenodd"/></g></svg>