<svg width="101" height="101" xmlns="http://www.w3.org/2000/svg" xmlns:xlink="http://www.w3.org/1999/xlink" xml:space="preserve" overflow="hidden"><defs><clipPath id="clip0"><rect x="1184" y="1397" width="101" height="101"/></clipPath></defs><g clip-path="url(#clip0)" transform="translate(-1184 -1397)"><path d="M1280.41 1488.82C1280.41 1491.35 1278.35 1493.41 1275.82 1493.41L1193.18 1493.41C1190.65 1493.41 1188.59 1491.35 1188.59 1488.82L1188.59 1406.18C1188.59 1403.65 1190.65 1401.59 1193.18 1401.59L1275.82 1401.59C1278.35 1401.59 1280.41 1403.65 1280.41 1406.18 1280.41 1406.18 1280.41 1488.82 1280.41 1488.82ZM1275.82 1397 1193.18 1397C1188.11 1397 1184 1401.11 1184 1406.18L1184 1488.82C1184 1493.89 1188.11 1498 1193.18 1498L1275.82 1498C1280.89 1498 1285 1493.89 1285 1488.82L1285 1406.18C1285 1401.11 1280.89 1397 1275.82 1397M1220.73 1426.84C1218.19 1426.84 1216.14 1424.79 1216.14 1422.25 1216.14 1419.72 1218.19 1417.66 1220.73 1417.66 1223.26 1417.66 1225.32 1419.72 1225.32 1422.25 1225.32 1424.79 1223.26 1426.84 1220.73 1426.84M1268.93 1419.95 1229.59 1419.95C1228.56 1416 1225 1413.07 1220.73 1413.07 1216.46 1413.07 1212.9 1416 1211.87 1419.95L1200.07 1419.95C1198.8 1419.95 1197.77 1420.99 1197.77 1422.25 1197.77 1423.52 1198.8 1424.55 1200.07 1424.55L1211.87 1424.55C1212.9 1428.5 1216.46 1431.43 1220.73 1431.43 1225 1431.43 1228.56 1428.5 1229.59 1424.55L1268.93 1424.55C1270.2 1424.55 1271.23 1423.52 1271.23 1422.25 1271.23 1420.99 1270.2 1419.95 1268.93 1419.95M1252.86 1452.09C1250.33 1452.09 1248.27 1450.03 1248.27 1447.5 1248.27 1444.97 1250.33 1442.91 1252.86 1442.91 1255.4 1442.91 1257.45 1444.97 1257.45 1447.5 1257.45 1450.03 1255.4 1452.09 1252.86 1452.09M1268.93 1445.21 1261.72 1445.21C1260.69 1441.25 1257.14 1438.32 1252.86 1438.32 1248.59 1438.32 1245.03 1441.25 1244.01 1445.21L1200.07 1445.21C1198.8 1445.21 1197.77 1446.24 1197.77 1447.5 1197.77 1448.77 1198.8 1449.8 1200.07 1449.8L1244.01 1449.8C1245.03 1453.75 1248.59 1456.68 1252.86 1456.68 1257.14 1456.68 1260.69 1453.75 1261.72 1449.8L1268.93 1449.8C1270.2 1449.8 1271.23 1448.77 1271.23 1447.5 1271.23 1446.24 1270.2 1445.21 1268.93 1445.21M1229.91 1477.34C1227.37 1477.34 1225.32 1475.29 1225.32 1472.75 1225.32 1470.22 1227.37 1468.16 1229.91 1468.16 1232.44 1468.16 1234.5 1470.22 1234.5 1472.75 1234.5 1475.29 1232.44 1477.34 1229.91 1477.34M1268.93 1470.45 1238.76 1470.45C1237.74 1466.5 1234.18 1463.57 1229.91 1463.57 1225.63 1463.57 1222.08 1466.5 1221.05 1470.45L1200.07 1470.45C1198.8 1470.45 1197.77 1471.48 1197.77 1472.75 1197.77 1474.02 1198.8 1475.05 1200.07 1475.05L1221.05 1475.05C1222.08 1479 1225.63 1481.93 1229.91 1481.93 1234.18 1481.93 1237.74 1479 1238.76 1475.05L1268.93 1475.05C1270.2 1475.05 1271.23 1474.02 1271.23 1472.75 1271.23 1471.48 1270.2 1470.45 1268.93 1470.45" fill="#2B2B2B" fill-rule="evenodd"/></g></svg>