<?xml version="1.0" encoding="UTF-8"?>
<svg id="Ebene_1" data-name="Ebene 1" xmlns="http://www.w3.org/2000/svg" xmlns:xlink="http://www.w3.org/1999/xlink" viewBox="0 0 700 653">
  <defs>
    <style>
      .cls-1 {
        stroke: #2b2b2b;
      }

      .cls-1, .cls-2, .cls-3, .cls-4, .cls-5 {
        fill: none;
        stroke-miterlimit: 10;
      }

      .cls-2 {
        stroke: #29515a;
      }

      .cls-3 {
        stroke: url(#Unbenannter_Verlauf_50);
      }

      .cls-4 {
        stroke: #25bee0;
      }

      .cls-5 {
        stroke: url(#Unbenannter_Verlauf_33);
      }
    </style>
    <linearGradient id="Unbenannter_Verlauf_33" data-name="Unbenannter Verlauf 33" x1="4.75" y1="327.76" x2="694.75" y2="327.76" gradientUnits="userSpaceOnUse">
      <stop offset=".66" stop-color="#2b2b2b"/>
      <stop offset=".7" stop-color="#2a3032"/>
      <stop offset=".75" stop-color="#2a4146"/>
      <stop offset=".82" stop-color="#285c67"/>
      <stop offset=".89" stop-color="#278195"/>
      <stop offset=".97" stop-color="#25b0cf"/>
      <stop offset=".99" stop-color="#25bee0"/>
    </linearGradient>
    <linearGradient id="Unbenannter_Verlauf_50" data-name="Unbenannter Verlauf 50" x1="-765" y1="-264.23" x2="-226" y2="-264.23" gradientTransform="translate(614.5 -168.5) rotate(-90)" gradientUnits="userSpaceOnUse">
      <stop offset=".69" stop-color="#2b2b2b"/>
      <stop offset=".75" stop-color="#2a2d2e"/>
      <stop offset=".79" stop-color="#2a3537"/>
      <stop offset=".84" stop-color="#2a4248"/>
      <stop offset=".87" stop-color="#29555f"/>
      <stop offset=".91" stop-color="#286d7d"/>
      <stop offset=".95" stop-color="#278ba2"/>
      <stop offset=".98" stop-color="#25aecc"/>
      <stop offset=".99" stop-color="#25bee0"/>
    </linearGradient>
  </defs>
  <line class="cls-5" x1="4.75" y1="327.76" x2="694.75" y2="327.76"/>
  <line class="cls-3" x1="350.27" y1="596.5" x2="350.27" y2="57.5"/>
  <line class="cls-1" x1="282.83" y1="317.9" x2="282.83" y2="337.62"/>
  <line class="cls-1" x1="215.39" y1="317.9" x2="215.39" y2="337.62"/>
  <line class="cls-1" x1="147.95" y1="317.9" x2="147.95" y2="337.62"/>
  <line class="cls-1" x1="4.38" y1="307.76" x2="4.38" y2="347.76"/>
  <line class="cls-4" x1="695.13" y1="307.76" x2="695.13" y2="347.76"/>
  <line class="cls-2" x1="551.55" y1="317.9" x2="551.55" y2="337.62"/>
  <line class="cls-1" x1="484.11" y1="317.9" x2="484.11" y2="337.62"/>
  <line class="cls-1" x1="416.67" y1="317.9" x2="416.67" y2="337.62"/>
  <line class="cls-1" x1="340.42" y1="394.16" x2="360.13" y2="394.16"/>
  <line class="cls-1" x1="340.42" y1="461.6" x2="360.13" y2="461.6"/>
  <line class="cls-1" x1="340.42" y1="529.04" x2="360.13" y2="529.04"/>
  <line class="cls-1" x1="330.27" y1="596.48" x2="370.27" y2="596.48"/>
  <line class="cls-4" x1="330.27" y1="58" x2="370.27" y2="58"/>
  <line class="cls-2" x1="340.42" y1="125.44" x2="360.13" y2="125.44"/>
  <line class="cls-1" x1="340.42" y1="192.88" x2="360.13" y2="192.88"/>
  <line class="cls-1" x1="340.42" y1="260.32" x2="360.13" y2="260.32"/>
</svg>