<svg width="72" height="72" xmlns="http://www.w3.org/2000/svg" xmlns:xlink="http://www.w3.org/1999/xlink" xml:space="preserve" overflow="hidden"><g transform="translate(-552 -22)"><path d="M21 31.5 51 31.5 51 33 21 33Z" transform="matrix(-1 0 0 1 624 22)"/><path d="M21 25.5 35.25 25.5 35.25 27 21 27Z" transform="matrix(-1 0 0 1 624 22)"/><path d="M21 37.5 51 37.5 51 39 21 39Z" transform="matrix(-1 0 0 1 624 22)"/><path d="M21 43.5 51 43.5 51 45 21 45Z" transform="matrix(-1 0 0 1 624 22)"/><path d="M21 49.5 51 49.5 51 51 21 51Z" transform="matrix(-1 0 0 1 624 22)"/><path d="M21 55.5 51 55.5 51 57 21 57Z" transform="matrix(-1 0 0 1 624 22)"/><path d="M13.5 6 13.5 66 58.5 66 58.5 22.1895 42.3105 6ZM42.7627 8.57325 55.9268 21.7372C55.9297 21.7402 55.9296 21.745 55.9267 21.7478 55.9253 21.7492 55.9234 21.75 55.9215 21.75L42.75 21.75 42.75 8.5785C42.7501 8.57438 42.7534 8.57107 42.7576 8.57107 42.7595 8.57115 42.7614 8.5719 42.7627 8.57325ZM15 64.5 15 7.5 41.25 7.5 41.25 23.25 57 23.25 57 64.5Z" transform="matrix(-1 0 0 1 624 22)"/></g></svg>