<svg width="96" height="96" xmlns="http://www.w3.org/2000/svg" xmlns:xlink="http://www.w3.org/1999/xlink" xml:space="preserve" overflow="hidden"><g transform="translate(-592 -312)"><path d="M666.6 389.153C661.223 392.823 654.882 394.822 648.373 394.9 634.12 394.9 624.338 384.125 622.282 366.9L652.873 366.9 652.873 364.9 622.081 364.9C621.948 363.283 621.873 361.619 621.873 359.9 621.873 358.181 621.948 356.517 622.081 354.9L652.873 354.9 652.873 352.9 622.282 352.9C624.338 335.674 634.12 324.9 648.373 324.9 654.88 324.98 661.218 326.98 666.593 330.648L667.693 328.981C661.992 325.096 655.271 322.98 648.373 322.9 633.194 322.9 622.459 334.694 620.286 352.9L610.873 352.9 610.873 354.9 620.084 354.9C619.949 356.523 619.873 358.187 619.873 359.9 619.873 361.613 619.949 363.277 620.084 364.9L610.873 364.9 610.873 366.9 620.286 366.9C622.459 385.106 633.194 396.9 648.373 396.9 655.274 396.822 661.998 394.706 667.7 390.819Z"/></g></svg>