<svg width="73" height="72" xmlns="http://www.w3.org/2000/svg" xmlns:xlink="http://www.w3.org/1999/xlink" xml:space="preserve" overflow="hidden"><g transform="translate(-1017 -22)"><path d="M33.75 18.75 51 18.75 51 20.25 33.75 20.25Z" transform="matrix(-1.01389 0 0 1 1090 22)"/><path d="M33.75 30 51 30 51 31.5 33.75 31.5Z" transform="matrix(-1.01389 0 0 1 1090 22)"/><path d="M33.75 41.25 51 41.25 51 42.75 33.75 42.75Z" transform="matrix(-1.01389 0 0 1 1090 22)"/><path d="M33.75 52.5 51 52.5 51 54 33.75 54Z" transform="matrix(-1.01389 0 0 1 1090 22)"/><path d="M13.5 66 58.5 66 58.5 6 13.5 6ZM15 7.5 57 7.5 57 64.5 15 64.5Z" transform="matrix(-1.01389 0 0 1 1090 22)"/><path d="M21 22.875 27.75 22.875 27.75 16.125 21 16.125ZM22.5 17.625 26.25 17.625 26.25 21.375 22.5 21.375Z" transform="matrix(-1.01389 0 0 1 1090 22)"/><path d="M21 34.125 27.75 34.125 27.75 27.375 21 27.375ZM22.5 28.875 26.25 28.875 26.25 32.625 22.5 32.625Z" transform="matrix(-1.01389 0 0 1 1090 22)"/><path d="M21 45.375 27.75 45.375 27.75 38.625 21 38.625ZM22.5 40.125 26.25 40.125 26.25 43.875 22.5 43.875Z" transform="matrix(-1.01389 0 0 1 1090 22)"/><path d="M21 56.625 27.75 56.625 27.75 49.875 21 49.875ZM22.5 51.375 26.25 51.375 26.25 55.125 22.5 55.125Z" transform="matrix(-1.01389 0 0 1 1090 22)"/></g></svg>