<svg width="96" height="96" xmlns="http://www.w3.org/2000/svg" xmlns:xlink="http://www.w3.org/1999/xlink" xml:space="preserve" overflow="hidden"><g transform="translate(-1010 -337)"><path d="M1015 404 1015 408 1017 408 1017 404C1017 399.004 1017.91 394.051 1019.7 389.386L1025.61 391.919 1026.4 390.081 1020.46 387.536C1022.38 383.179 1025.05 379.19 1028.34 375.746L1033.3 380.707 1034.71 379.293 1029.74 374.33C1033.19 371.047 1037.19 368.387 1041.54 366.469L1044.08 372.394 1045.92 371.606 1043.39 365.706C1046.37 364.564 1049.48 363.777 1052.64 363.361L1052.82 361.322C1031.25 363.963 1015.03 382.267 1015 404Z"/><path d="M1063.59 361.376 1063.75 363.412C1066.78 363.84 1069.75 364.608 1072.61 365.702L1070.08 371.602 1071.92 372.39 1074.46 366.458C1078.82 368.378 1082.81 371.04 1086.26 374.325L1081.3 379.289 1082.71 380.703 1087.68 375.738C1090.96 379.184 1093.63 383.174 1095.55 387.532L1089.61 390.077 1090.4 391.915 1096.31 389.381C1098.09 394.048 1099.01 399.003 1099 404L1099 408 1101 408 1101 404C1100.97 382.427 1084.98 364.206 1063.59 361.376Z"/><path d="M1059.21 357.963C1059.17 357.445 1058.74 357.044 1058.22 357.042L1058.21 357.042C1057.69 357.04 1057.26 357.436 1057.21 357.953L1053.08 404.682C1052.87 407.385 1054.88 409.751 1057.58 409.991 1057.68 409.997 1057.78 410 1057.89 410 1060.5 410.005 1062.67 408.011 1062.9 405.412 1062.9 405.354 1062.91 405.296 1062.91 405.239 1062.94 405.011 1062.94 404.779 1062.89 404.553ZM1060.92 405.04C1060.91 405.129 1060.91 405.219 1060.91 405.309 1060.74 406.914 1059.34 408.102 1057.73 408 1056.13 407.843 1054.95 406.438 1055.07 404.838L1058.15 370.138C1058.15 370.133 1058.15 370.128 1058.16 370.128 1058.16 370.128 1058.17 370.133 1058.17 370.138L1060.91 404.8C1060.91 404.854 1060.92 404.907 1060.93 404.959 1060.93 404.985 1060.93 405.012 1060.92 405.04Z"/></g></svg>