<svg width="101" height="101" xmlns="http://www.w3.org/2000/svg" xmlns:xlink="http://www.w3.org/1999/xlink" xml:space="preserve" overflow="hidden"><defs><clipPath id="clip0"><rect x="1184" y="624" width="101" height="101"/></clipPath></defs><g clip-path="url(#clip0)" transform="translate(-1184 -624)"><path d="M1282.7 658.433C1281.44 658.433 1280.41 659.462 1280.41 660.729L1280.41 711.229C1280.41 716.298 1276.3 720.408 1271.23 720.408L1197.77 720.408C1192.7 720.408 1188.59 716.298 1188.59 711.229L1188.59 637.771C1188.59 632.702 1192.7 628.592 1197.77 628.592L1248.27 628.592C1249.54 628.592 1250.57 627.563 1250.57 626.296 1250.57 625.029 1249.54 624 1248.27 624L1197.77 624C1190.16 624 1184 630.167 1184 637.771L1184 711.229C1184 718.837 1190.16 725 1197.77 725L1271.23 725C1278.84 725 1285 718.837 1285 711.229L1285 660.729C1285 659.462 1283.97 658.433 1282.7 658.433M1216.76 683.683 1225.32 683.683 1225.32 692.24 1214.99 694.013C1214.99 694.013 1216.76 683.683 1216.76 683.683ZM1262.44 636.821 1272.18 646.561 1229.91 688.832 1229.91 679.092 1220.17 679.092C1220.17 679.092 1262.44 636.821 1262.44 636.821ZM1268.65 630.612C1269.9 629.363 1271.62 628.592 1273.52 628.592 1277.33 628.592 1280.41 631.678 1280.41 635.479 1280.41 637.378 1279.64 639.103 1278.39 640.347L1275.42 643.316 1265.68 633.576C1265.68 633.576 1268.65 630.612 1268.65 630.612ZM1209.25 699.75 1228.84 696.388 1281.64 643.592C1283.71 641.516 1285 638.65 1285 635.479 1285 629.139 1279.86 624 1273.52 624 1270.35 624 1267.48 625.286 1265.41 627.362L1212.61 680.158C1212.61 680.158 1209.25 699.75 1209.25 699.75Z" fill="#2B2B2B" fill-rule="evenodd"/></g></svg>