<svg width="102" height="101" xmlns="http://www.w3.org/2000/svg" xmlns:xlink="http://www.w3.org/1999/xlink" xml:space="preserve" overflow="hidden"><defs><clipPath id="clip0"><rect x="1377" y="624" width="102" height="101"/></clipPath></defs><g clip-path="url(#clip0)" transform="translate(-1377 -624)"><path d="M1470.29 652.102 1464.98 657.367 1445.31 637.887 1450.62 632.627C1450.62 632.627 1454.4 628.592 1460.46 628.592 1468.14 628.592 1474.36 634.755 1474.36 642.362 1474.36 646.168 1472.8 649.61 1470.29 652.102M1411.77 710.046 1411.77 692.862C1411.77 691.595 1410.74 690.566 1409.46 690.566L1392.1 690.566 1442.03 641.137 1461.69 660.612C1461.69 660.612 1411.77 710.046 1411.77 710.046ZM1407.14 713.039 1390.91 716.794 1390.91 711.229 1385.29 711.229 1389.08 695.158 1407.14 695.158C1407.14 695.158 1407.14 713.039 1407.14 713.039ZM1460.46 624C1455.33 624 1450.7 626.053 1447.34 629.382L1384.75 691.357 1377 725 1410.98 717.327 1473.56 655.347C1476.92 652.027 1479 647.436 1479 642.362 1479 632.22 1470.7 624 1460.46 624" fill="#2B2B2B" fill-rule="evenodd"/></g></svg>