<svg width="96" height="96" xmlns="http://www.w3.org/2000/svg" xmlns:xlink="http://www.w3.org/1999/xlink" xml:space="preserve" overflow="hidden"><g transform="translate(-1138 -232)"><path d="M1161.6 293.717 1159.1 301.217 1164.8 306.917 1172.3 304.417C1174.29 305.53 1176.4 306.403 1178.6 307.017L1182.1 314.017 1190.1 314.017 1193.6 307.017C1195.77 306.421 1197.85 305.547 1199.8 304.417L1207.3 306.917 1213 301.217 1210.5 293.717C1211.61 291.727 1212.49 289.612 1213.1 287.417L1220.1 283.917 1220.1 275.917 1213 272.517C1212.4 270.347 1211.53 268.263 1210.4 266.317L1212.9 258.817 1207.2 253.117 1199.7 255.617C1197.71 254.504 1195.6 253.631 1193.4 253.017L1190 246 1182 246 1178.5 253C1176.33 253.596 1174.25 254.47 1172.3 255.6L1164.8 253.1 1159.1 258.8 1161.6 266.3C1160.49 268.29 1159.61 270.405 1159 272.6L1152 276 1152 284 1159 287.5C1159.6 289.676 1160.47 291.765 1161.6 293.717ZM1154 277.264 1159.87 274.41 1160.69 274.01 1160.93 273.134C1161.5 271.091 1162.32 269.122 1163.35 267.269L1163.77 266.503 1163.5 265.673 1161.39 259.344 1165.34 255.39 1171.67 257.5 1172.52 257.785 1173.3 257.333C1175.1 256.29 1177.02 255.483 1179.03 254.933L1179.89 254.698 1180.29 253.898 1183.24 248 1188.75 248 1191.6 253.88 1192 254.696 1192.88 254.935C1194.92 255.51 1196.89 256.324 1198.74 257.359L1199.51 257.781 1200.34 257.504 1206.66 255.394 1210.62 259.348 1208.51 265.677 1208.22 266.532 1208.67 267.311C1209.72 269.108 1210.52 271.033 1211.07 273.037L1211.31 273.92 1212.14 274.315 1218.1 277.172 1218.1 282.679 1212.2 285.627 1211.41 286.027 1211.17 286.889C1210.6 288.932 1209.78 290.901 1208.75 292.754L1208.33 293.52 1208.6 294.35 1210.71 300.679 1206.76 304.633 1200.43 302.523 1199.58 302.238 1198.8 302.69C1197 303.733 1195.08 304.54 1193.07 305.09L1192.21 305.325 1191.81 306.125 1188.86 312.025 1183.34 312.025 1180.39 306.125 1179.99 305.325 1179.13 305.09C1177.09 304.515 1175.12 303.701 1173.27 302.666L1172.5 302.244 1171.67 302.521 1165.34 304.631 1161.39 300.677 1163.5 294.35 1163.78 293.495 1163.33 292.715C1162.29 290.918 1161.48 288.993 1160.93 286.989L1160.7 286.127 1159.9 285.727 1154 282.779Z"/><path d="M1186 292.017C1192.63 292.017 1198 286.644 1198 280.017 1198 273.39 1192.63 268.017 1186 268.017 1179.37 268.017 1174 273.39 1174 280.017 1174.02 286.636 1179.38 291.996 1186 292.017ZM1186 270.01C1191.52 270.01 1196 274.487 1196 280.01 1196 285.533 1191.52 290.01 1186 290.01 1180.48 290.01 1176 285.533 1176 280.01 1176.01 274.49 1180.48 270.017 1186 270.01Z"/></g></svg>