<svg width="101" height="92" xmlns="http://www.w3.org/2000/svg" xmlns:xlink="http://www.w3.org/1999/xlink" xml:space="preserve" overflow="hidden"><defs><clipPath id="clip0"><rect x="1957" y="628" width="101" height="92"/></clipPath></defs><g clip-path="url(#clip0)" transform="translate(-1957 -628)"><path d="M1993.73 708.5C1991.04 708.5 1988.25 708.189 1985.46 707.576 1985.14 707.504 1984.8 707.469 1984.48 707.469 1983.91 707.469 1983.35 707.572 1982.83 707.772L1970.83 712.397 1972.73 705.702C1973.24 703.93 1972.64 702.026 1971.21 700.868 1965.01 695.833 1961.59 689.155 1961.59 682.05 1961.59 667.466 1976.01 655.6 1993.73 655.6 2011.45 655.6 2025.86 667.466 2025.86 682.05 2025.86 696.634 2011.45 708.5 1993.73 708.5M1993.73 651C1973.45 651 1957 664.902 1957 682.05 1957 690.858 1961.36 698.789 1968.33 704.441L1963.89 720 1984.48 712.069C1987.44 712.721 1990.52 713.1 1993.73 713.1 2014.01 713.1 2030.45 699.198 2030.45 682.05 2030.45 664.902 2014.01 651 1993.73 651M2058 659.05C2058 641.902 2041.56 628 2021.27 628 2006.13 628 1993.12 635.756 1987.51 646.835 1989.32 646.6 1991.16 646.451 1993.04 646.426 1998.5 638.197 2009.1 632.6 2021.27 632.6 2038.99 632.6 2053.41 644.466 2053.41 659.05 2053.41 666.155 2049.99 672.833 2043.79 677.863 2042.36 679.026 2041.76 680.934 2042.26 682.702L2044.17 689.397 2034.68 685.739C2034.49 687.298 2034.15 688.814 2033.74 690.305L2051.11 697 2046.67 681.441C2053.65 675.789 2058 667.858 2058 659.05" fill="#2B2B2B" fill-rule="evenodd"/></g></svg>