<svg width="96" height="96" xmlns="http://www.w3.org/2000/svg" xmlns:xlink="http://www.w3.org/1999/xlink" xml:space="preserve" overflow="hidden"><g transform="translate(-1137 -545)"><path d="M1184.1 583.8C1181.3 583.8 1179.1 586 1179.1 588.8 1179.1 591.6 1181.3 593.8 1184.1 593.8 1186.9 593.8 1189.1 591.6 1189.1 588.8 1189.1 588.8 1189.1 588.8 1189.1 588.8 1189.1 586 1186.9 583.8 1184.1 583.8ZM1184.1 591.8C1182.4 591.8 1181.1 590.5 1181.1 588.8 1181.1 587.1 1182.4 585.8 1184.1 585.8 1185.8 585.8 1187.1 587.1 1187.1 588.8 1187.1 590.5 1185.8 591.8 1184.1 591.8 1184.1 591.8 1184.1 591.8 1184.1 591.8L1184.1 591.8Z"/><path d="M1193.4 584.1 1194.3 581.4 1191.5 578.6 1188.8 579.5C1188.3 579.3 1187.8 579.1 1187.3 578.9L1186 576.4 1182.1 576.4 1180.8 578.9C1180.3 579.1 1179.8 579.3 1179.3 579.5L1176.6 578.6 1173.8 581.4 1174.7 584.1C1174.4 584.6 1174.2 585.1 1174.1 585.6L1171.6 586.9 1171.6 590.8 1174.1 592.1C1174.3 592.6 1174.5 593.1 1174.7 593.6L1173.8 596.3 1176.7 599.1 1179.4 598.2C1179.9 598.4 1180.4 598.6 1180.9 598.8L1182.2 601.3 1186.1 601.3 1187.4 598.8C1187.9 598.6 1188.4 598.4 1188.8 598.2L1191.5 599.1 1194.3 596.3 1193.4 593.6C1193.6 593.1 1193.9 592.6 1194 592.1L1196.5 590.8 1196.5 586.9 1194 585.6C1193.9 585.1 1193.7 584.6 1193.4 584.1ZM1194.5 589.5 1192.3 590.6 1192.2 591C1192 591.7 1191.7 592.3 1191.4 592.9L1191.2 593.3 1192 595.7 1191 596.7 1188.7 595.9 1188.3 596.1C1187.7 596.4 1187.1 596.7 1186.5 596.8L1186 597 1184.9 599.2 1183.4 599.2 1182.3 597 1181.9 596.9C1181.3 596.7 1180.6 596.5 1180.1 596.1L1179.7 595.9 1177.3 596.7 1176.2 595.6 1177 593.3 1176.8 592.9C1176.5 592.3 1176.2 591.7 1176 591.1L1175.9 590.7 1173.7 589.6 1173.7 588.2 1175.9 587.1 1176 586.7C1176.2 586.1 1176.4 585.4 1176.8 584.9L1177 584.5 1176.2 582 1177.2 580.9 1179.6 581.7 1180 581.5C1180.6 581.2 1181.2 580.9 1181.9 580.7L1182.3 580.6 1183.4 578.4 1184.8 578.4 1185.9 580.6 1186.3 580.7C1186.9 580.9 1187.6 581.1 1188.1 581.5L1188.5 581.7 1190.9 580.9 1191.9 581.9 1191.1 584.3 1191.3 584.7C1191.6 585.3 1191.9 585.9 1192.1 586.5L1192.2 586.9 1194.4 588 1194.5 589.5Z"/><path d="M1209.1 589.5 1209.1 588.6C1209.1 574.8 1197.9 563.6 1184.1 563.6 1170.3 563.6 1159.1 574.8 1159.1 588.6L1159.1 589.5C1159.2 592.5 1159.8 595.4 1160.8 598.2 1161.8 600.8 1163.3 603.2 1165.1 605.3 1167.4 607.8 1169.9 612.6 1171 614.8 1171.3 615.4 1172 615.9 1172.7 615.9L1195.4 615.9C1196.1 615.9 1196.8 615.5 1197.1 614.8 1198.2 612.6 1200.7 607.8 1202.9 605.3 1204.8 603.2 1206.2 600.8 1207.2 598.2 1208.4 595.4 1209 592.4 1209.1 589.5ZM1207.1 589.5C1207 592.2 1206.5 594.9 1205.5 597.5 1204.6 599.9 1203.2 602.1 1201.5 604 1199.1 606.6 1196.6 611.3 1195.4 613.9L1172.8 613.9C1171.5 611.3 1169 606.6 1166.7 604 1165 602.1 1163.7 599.9 1162.7 597.5 1161.7 595 1161.2 592.3 1161.1 589.5L1161.1 588.7C1161.1 576 1171.4 565.7 1184.1 565.7 1196.8 565.7 1207.1 576 1207.1 588.7L1207.1 588.7 1207.1 589.5Z"/><path d="M1195.2 621.9 1173.2 621.9C1172.6 621.9 1172.2 622.3 1172.2 622.9 1172.2 623.5 1172.6 623.9 1173.2 623.9L1195.2 623.9C1195.8 623.9 1196.2 623.5 1196.2 622.9 1196.2 622.3 1195.8 621.9 1195.2 621.9Z"/><path d="M1184.4 560C1185 560 1185.4 559.6 1185.4 559L1185.4 550C1185.4 549.4 1185 549 1184.4 549 1183.8 549 1183.4 549.4 1183.4 550L1183.4 559C1183.4 559.6 1183.8 560 1184.4 560Z"/><path d="M1154.1 588 1145.1 588C1144.5 588 1144.1 588.4 1144.1 589 1144.1 589.6 1144.5 590 1145.1 590L1154.1 590C1154.7 590 1155.1 589.6 1155.1 589 1155.1 588.4 1154.6 588 1154.1 588Z"/><path d="M1223.1 588 1214.1 588C1213.5 588 1213.1 588.4 1213.1 589 1213.1 589.6 1213.5 590 1214.1 590L1223.1 590C1223.7 590 1224.1 589.6 1224.1 589 1224.1 588.4 1223.6 588 1223.1 588Z"/><path d="M1162.2 568.5C1162.6 568.9 1163.2 568.9 1163.6 568.5 1164 568.1 1164 567.5 1163.6 567.1L1157.2 560.7C1156.8 560.3 1156.2 560.3 1155.8 560.6 1155.4 561 1155.4 561.6 1155.7 562 1155.7 562 1155.7 562 1155.8 562.1L1162.2 568.5Z"/><path d="M1206 609.5C1205.6 609.1 1205 609.1 1204.6 609.5 1204.2 609.9 1204.2 610.5 1204.6 610.9 1204.6 610.9 1204.6 610.9 1204.6 610.9L1211 617.3C1211.4 617.7 1212 617.7 1212.4 617.3 1212.8 616.9 1212.8 616.3 1212.4 615.9L1206 609.5Z"/><path d="M1210.8 560.8 1204.6 567C1204.2 567.4 1204.2 568 1204.5 568.4 1204.9 568.8 1205.5 568.8 1205.9 568.5 1205.9 568.5 1205.9 568.5 1206 568.4L1212.4 562C1212.8 561.6 1212.8 561 1212.4 560.6 1212 560.2 1211.4 560.2 1211 560.6L1210.8 560.8Z"/><path d="M1162.2 609.5 1155.8 615.9C1155.4 616.3 1155.4 616.9 1155.8 617.3 1156.2 617.7 1156.8 617.7 1157.2 617.3 1157.2 617.3 1157.2 617.3 1157.2 617.3L1163.6 610.9C1164 610.5 1164 609.9 1163.6 609.5 1163.2 609.1 1162.6 609.1 1162.2 609.5L1162.2 609.5Z"/><path d="M1184.1 636C1181.1 636 1178.6 633.7 1178.3 630.7 1178.3 630.1 1178.7 629.7 1179.2 629.6 1179.2 629.6 1179.3 629.6 1179.3 629.6L1188.9 629.6C1189.5 629.6 1189.9 630 1189.9 630.6 1189.9 630.6 1189.9 630.7 1189.9 630.7 1189.6 633.7 1187.1 636 1184.1 636ZM1180.6 631.6C1181.4 633.5 1183.6 634.5 1185.5 633.8 1186.5 633.4 1187.3 632.6 1187.7 631.6L1180.6 631.6Z"/></g></svg>