<svg width="101" height="101" xmlns="http://www.w3.org/2000/svg" xmlns:xlink="http://www.w3.org/1999/xlink" xml:space="preserve" overflow="hidden"><defs><clipPath id="clip0"><rect x="604" y="237" width="101" height="101"/></clipPath></defs><g clip-path="url(#clip0)" transform="translate(-604 -237)"><path d="M654.5 292.092C651.966 292.092 649.908 290.034 649.908 287.5 649.908 284.966 651.966 282.908 654.5 282.908 657.034 282.908 659.092 284.966 659.092 287.5 659.092 290.034 657.034 292.092 654.5 292.092M670.566 285.204 663.356 285.204C662.524 281.992 660.013 279.476 656.796 278.644L656.796 262.25C656.796 260.983 655.767 259.954 654.5 259.954 653.233 259.954 652.204 260.983 652.204 262.25L652.204 278.644C648.253 279.668 645.316 283.226 645.316 287.5 645.316 292.573 649.431 296.683 654.5 296.683 658.774 296.683 662.337 293.752 663.356 289.796L670.566 289.796C671.834 289.796 672.862 288.772 672.862 287.5 672.862 286.233 671.834 285.204 670.566 285.204M654.5 333.408C629.142 333.408 608.592 312.857 608.592 287.5 608.592 262.142 629.142 241.592 654.5 241.592 679.858 241.592 700.408 262.142 700.408 287.5 700.408 312.857 679.858 333.408 654.5 333.408M654.5 237C626.613 237 604 259.613 604 287.5 604 315.392 626.613 338 654.5 338 682.387 338 705 315.392 705 287.5 705 259.613 682.387 237 654.5 237M654.5 324.229C634.216 324.229 617.771 307.784 617.771 287.5 617.771 267.216 634.216 250.77 654.5 250.77 674.784 250.77 691.229 267.216 691.229 287.5 691.229 307.784 674.784 324.229 654.5 324.229M654.5 246.183C631.681 246.183 613.183 264.681 613.183 287.5 613.183 310.318 631.681 328.816 654.5 328.816 677.318 328.816 695.816 310.318 695.816 287.5 695.816 264.681 677.318 246.183 654.5 246.183" fill="#2B2B2B" fill-rule="evenodd"/></g></svg>