<svg width="96" height="96" xmlns="http://www.w3.org/2000/svg" xmlns:xlink="http://www.w3.org/1999/xlink" xml:space="preserve" overflow="hidden"><g transform="translate(-14 -10)"><path d="M62 24.328 70.1 48.643 70.556 50.011 96.656 50.011 77.689 66.511 76.715 67.358 77.086 68.595 84.446 93.133 63.137 78.375 62 77.587 60.861 78.375 39.553 93.129 46.913 68.591 47.284 67.354 46.31 66.507 27.343 50.007 53.443 50.007 53.899 48.639ZM52 48.011 22 48.011 45 68.011 36 98.025 62 80.02 88 98.025 79 68.016 102 48.016 72 48.016 62 18Z"/></g></svg>