<svg width="96" height="96" xmlns="http://www.w3.org/2000/svg" xmlns:xlink="http://www.w3.org/1999/xlink" xml:space="preserve" overflow="hidden"><g transform="translate(-883 -337)"><path d="M917.081 388.423 910.206 388.423 910.206 381.6C910.739 381.936 911.355 382.114 911.985 382.114L918.34 382.114C920.073 382.134 921.548 380.855 921.771 379.136 921.959 377.314 920.634 375.685 918.812 375.497 918.699 375.486 918.585 375.48 918.471 375.48L913.071 375.48 910.261 373.418C909.733 373.016 909.225 372.587 908.741 372.133L908.351 371.782C907.169 370.729 905.596 370.226 904.023 370.4 901.121 370.753 898.955 373.242 899.005 376.165L899.005 389.45C899.008 392.561 901.528 395.082 904.639 395.085L913.766 395.085 913.766 405.742C913.744 407.476 915.024 408.951 916.743 409.174 916.854 409.185 916.965 409.19 917.075 409.19 918.905 409.196 920.394 407.717 920.4 405.887 920.4 405.883 920.4 405.878 920.4 405.874L920.4 391.74C920.398 389.908 918.913 388.424 917.081 388.423ZM907.9 377.408C907.455 377.08 906.829 377.175 906.502 377.62 906.174 378.064 906.268 378.69 906.713 379.018L908.213 380.118 908.213 390.418 917.088 390.418C917.815 390.421 918.402 391.013 918.4 391.74L918.4 405.874C918.401 406.601 917.812 407.191 917.086 407.191 917.038 407.191 916.991 407.189 916.944 407.184 916.243 407.071 915.738 406.451 915.768 405.742L915.768 393.085 904.639 393.085C902.633 393.082 901.007 391.456 901.005 389.45L901.005 376.143C900.966 374.242 902.369 372.619 904.255 372.381 905.261 372.271 906.265 372.594 907.019 373.269L907.4 373.611C907.935 374.111 908.495 374.583 909.078 375.026L912.418 377.475 918.472 377.475C919.199 377.475 919.789 378.065 919.789 378.793 919.788 378.839 919.786 378.886 919.781 378.932 919.669 379.633 919.049 380.139 918.34 380.109L911.987 380.109C911.706 380.108 911.432 380.02 911.204 379.856Z"/><path d="M904.005 369.2C906.766 369.2 909.005 366.961 909.005 364.2 909.005 361.439 906.766 359.2 904.005 359.2 901.244 359.2 899.005 361.439 899.005 364.2 899.005 366.961 901.244 369.2 904.005 369.2ZM904.005 361.2C905.662 361.2 907.005 362.543 907.005 364.2 907.005 365.857 905.662 367.2 904.005 367.2 902.348 367.2 901.005 365.857 901.005 364.2 901.005 362.543 902.348 361.2 904.005 361.2Z"/><path d="M911 398 904 398C899.584 397.995 896.005 394.416 896 390L896 377C896 376.448 895.552 376 895 376 894.448 376 894 376.448 894 377L894 390C894.005 394.75 897.347 398.844 902 399.8L902 408 897 408 897 410 909 410 909 408 904 408 904 400 911 400C911.552 400 912 399.552 912 399 912 398.448 911.552 398 911 398Z"/><path d="M932 386 948 386C948.552 386 949 385.552 949 385 949 384.448 948.552 384 948 384L914 384C913.448 384 913 384.448 913 385 913 385.552 913.448 386 914 386L930 386 930 408 923 408 923 410 939 410 939 408 932 408Z"/><path d="M963 389.45 963 376.178C963.055 373.244 960.88 370.745 957.967 370.393 956.398 370.225 954.832 370.727 953.653 371.776L953.263 372.128C952.779 372.582 952.271 373.011 951.743 373.413L948.932 375.475 943.532 375.475C941.7 375.475 940.214 376.961 940.215 378.794 940.215 378.906 940.221 379.019 940.232 379.131 940.456 380.85 941.931 382.13 943.664 382.109L950.02 382.109C950.649 382.111 951.267 381.934 951.8 381.6L951.8 388.428 944.927 388.428C943.096 388.43 941.612 389.914 941.609 391.745L941.609 405.874C941.608 407.705 943.092 409.19 944.923 409.19 944.926 409.19 944.93 409.19 944.933 409.19 945.043 409.19 945.153 409.19 945.265 409.174 946.984 408.951 948.264 407.475 948.242 405.742L948.242 395.085 957.369 395.085C960.478 395.08 962.997 392.559 963 389.45ZM950.8 379.856C950.572 380.02 950.299 380.108 950.018 380.109L943.668 380.109C942.959 380.137 942.341 379.632 942.226 378.932 942.149 378.209 942.672 377.56 943.396 377.482 943.442 377.478 943.489 377.475 943.536 377.475L949.59 377.475 952.93 375.026C953.513 374.584 954.073 374.111 954.607 373.611L954.989 373.268C955.739 372.597 956.737 372.274 957.738 372.379 959.635 372.615 961.044 374.249 961 376.16L961 389.45C960.998 391.456 959.372 393.082 957.366 393.085L946.242 393.085 946.242 405.742C946.272 406.452 945.766 407.072 945.065 407.184 944.692 407.227 944.319 407.105 944.043 406.851 943.766 406.602 943.607 406.247 943.609 405.874L943.609 391.74C943.61 391.013 944.2 390.424 944.927 390.423L953.8 390.423 953.8 380.123 955.3 379.023C955.745 378.695 955.839 378.069 955.511 377.624 955.183 377.179 954.557 377.085 954.112 377.413Z"/><path d="M958 369.2C960.761 369.2 963 366.961 963 364.2 963 361.439 960.761 359.2 958 359.2 955.239 359.2 953 361.439 953 364.2 953 366.961 955.239 369.2 958 369.2ZM958 361.2C959.657 361.2 961 362.543 961 364.2 961 365.857 959.657 367.2 958 367.2 956.343 367.2 955 365.857 955 364.2 955 362.543 956.343 361.2 958 361.2Z"/><path d="M967 376C966.448 376 966 376.448 966 377L966 390C965.995 394.416 962.416 397.995 958 398L951 398C950.448 398 950 398.448 950 399 950 399.552 950.448 400 951 400L958 400 958 408 953 408 953 410 965 410 965 408 960 408 960 399.8C964.653 398.844 967.994 394.75 968 390L968 377C968 376.448 967.552 376 967 376Z"/></g></svg>