<svg width="102" height="101" xmlns="http://www.w3.org/2000/svg" xmlns:xlink="http://www.w3.org/1999/xlink" xml:space="preserve" overflow="hidden"><defs><clipPath id="clip0"><rect x="1377" y="1397" width="102" height="101"/></clipPath></defs><g clip-path="url(#clip0)" transform="translate(-1377 -1397)"><path d="M1428 1465.86C1417.76 1465.86 1409.46 1457.64 1409.46 1447.5 1409.46 1437.36 1417.76 1429.14 1428 1429.14 1438.24 1429.14 1446.54 1437.36 1446.54 1447.5 1446.54 1457.64 1438.24 1465.86 1428 1465.86M1428 1424.55C1415.19 1424.55 1404.82 1434.82 1404.82 1447.5 1404.82 1460.18 1415.19 1470.45 1428 1470.45 1440.81 1470.45 1451.18 1460.18 1451.18 1447.5 1451.18 1434.82 1440.81 1424.55 1428 1424.55M1474.36 1453.17C1474.34 1453.18 1474.33 1453.19 1474.31 1453.19L1469.57 1454.36C1467.93 1454.77 1466.65 1456.02 1466.21 1457.63 1465.32 1460.93 1463.99 1464.1 1462.25 1467.07 1461.4 1468.52 1461.41 1470.3 1462.28 1471.74L1464.84 1475.95 1456.74 1483.97C1456.72 1483.97 1456.7 1483.96 1456.69 1483.95L1452.45 1481.43C1451.72 1481 1450.89 1480.78 1450.07 1480.78 1449.27 1480.78 1448.47 1480.98 1447.75 1481.4 1444.75 1483.11 1441.56 1484.42 1438.24 1485.3 1436.61 1485.73 1435.35 1487 1434.94 1488.62L1433.74 1493.36C1433.74 1493.38 1433.73 1493.39 1433.72 1493.41L1422.27 1493.41 1421.06 1488.62C1420.65 1487 1419.39 1485.73 1417.76 1485.3 1414.44 1484.42 1411.24 1483.11 1408.25 1481.4 1407.53 1480.98 1406.73 1480.78 1405.93 1480.78 1405.1 1480.78 1404.28 1481 1403.54 1481.43L1399.31 1483.95C1399.3 1483.96 1399.28 1483.97 1399.26 1483.97L1391.17 1475.95 1393.72 1471.74C1394.59 1470.3 1394.6 1468.52 1393.75 1467.07 1392.01 1464.1 1390.68 1460.93 1389.79 1457.63 1389.35 1456.02 1388.06 1454.77 1386.44 1454.36L1381.69 1453.19C1381.67 1453.19 1381.66 1453.18 1381.64 1453.17L1381.64 1441.83 1386.44 1440.64C1388.06 1440.24 1389.35 1438.99 1389.79 1437.37 1390.68 1434.07 1392.01 1430.9 1393.75 1427.93 1394.6 1426.48 1394.59 1424.7 1393.72 1423.26L1391.19 1419.09C1391.19 1419.08 1391.18 1419.06 1391.17 1419.04L1399.27 1411.03 1403.54 1413.57C1404.28 1414.01 1405.1 1414.22 1405.93 1414.22 1406.73 1414.22 1407.53 1414.02 1408.25 1413.6 1411.24 1411.89 1414.44 1410.58 1417.76 1409.7 1419.39 1409.27 1420.65 1408 1421.06 1406.38L1422.27 1401.59 1433.72 1401.59C1433.73 1401.61 1433.74 1401.62 1433.74 1401.64L1434.94 1406.38C1435.35 1408 1436.61 1409.27 1438.24 1409.7 1441.56 1410.58 1444.75 1411.89 1447.75 1413.6 1448.47 1414.02 1449.27 1414.22 1450.07 1414.22 1450.89 1414.22 1451.72 1414.01 1452.45 1413.57L1456.73 1411.03 1464.83 1419.04C1464.82 1419.06 1464.82 1419.08 1464.81 1419.1L1462.28 1423.26C1461.41 1424.7 1461.4 1426.48 1462.25 1427.93 1463.99 1430.9 1465.32 1434.07 1466.21 1437.37 1466.65 1438.99 1467.93 1440.24 1469.57 1440.64L1474.36 1441.83C1474.36 1441.83 1474.36 1453.17 1474.36 1453.17ZM1475.6 1437.4 1470.69 1436.18C1469.68 1432.44 1468.18 1428.9 1466.26 1425.63L1468.87 1421.32C1469.67 1419.78 1470.2 1417.87 1468.87 1416.55L1459.26 1407.03C1458.66 1406.44 1457.92 1406.2 1457.16 1406.2 1456.23 1406.2 1455.26 1406.55 1454.44 1407.03L1450.07 1409.63C1446.77 1407.75 1443.21 1406.27 1439.44 1405.27L1438.2 1400.37C1437.67 1398.72 1436.68 1397 1434.8 1397L1421.2 1397C1419.32 1397 1418.23 1398.72 1417.8 1400.37L1416.56 1405.27C1412.79 1406.27 1409.23 1407.75 1405.93 1409.63L1401.56 1407.03C1400.74 1406.55 1399.77 1406.2 1398.84 1406.2 1398.08 1406.2 1397.34 1406.44 1396.74 1407.03L1387.13 1416.55C1385.8 1417.87 1386.33 1419.78 1387.13 1421.32L1389.74 1425.63C1387.82 1428.9 1386.32 1432.44 1385.31 1436.18L1380.4 1437.4C1378.73 1437.82 1377 1438.91 1377 1440.77L1377 1454.23C1377 1456.09 1378.73 1457.08 1380.4 1457.6L1385.31 1458.82C1386.32 1462.56 1387.82 1466.1 1389.74 1469.38L1387.13 1473.69C1386.25 1475.15 1385.8 1477.14 1387.13 1478.45L1396.74 1487.97C1397.33 1488.55 1398.03 1488.77 1398.77 1488.77 1399.7 1488.77 1400.69 1488.41 1401.56 1487.97L1405.93 1485.37C1409.23 1487.26 1412.79 1488.74 1416.56 1489.73L1417.8 1494.63C1418.23 1496.28 1419.32 1498 1421.2 1498L1434.8 1498C1436.68 1498 1437.67 1496.28 1438.2 1494.63L1439.44 1489.73C1443.21 1488.74 1446.77 1487.26 1450.07 1485.37L1454.44 1487.97C1455.31 1488.41 1456.3 1488.77 1457.23 1488.77 1457.97 1488.77 1458.67 1488.55 1459.26 1487.97L1468.87 1478.45C1470.2 1477.14 1469.75 1475.15 1468.87 1473.69L1466.26 1469.38C1468.18 1466.1 1469.68 1462.56 1470.69 1458.82L1475.6 1457.6C1477.27 1457.08 1479 1456.09 1479 1454.23L1479 1440.77C1479 1438.91 1477.27 1437.82 1475.6 1437.4" fill="#2B2B2B" fill-rule="evenodd"/></g></svg>