<?xml version="1.0" encoding="UTF-8"?>
<svg id="Ebene_2" data-name="Ebene 2" xmlns="http://www.w3.org/2000/svg" viewBox="0 0 434.45 295.14">
  <defs>
    <style>
      .cls-1 {
        fill: #c8c8c8;
        fill-rule: evenodd;
        stroke-width: 0px;
      }
    </style>
  </defs>
  <g id="Ebene_1-2" data-name="Ebene 1">
    <path class="cls-1" d="M434.45,9.84c0-5.42-4.42-9.84-9.88-9.84-2.82,0-5.31,1.2-7.12,3.09l-.02-.04L157.85,271.27,16.86,130.78c-1.79-1.78-4.26-2.88-6.98-2.88-5.45,0-9.88,4.41-9.88,9.84,0,2.72,1.11,5.18,2.9,6.95l148.1,147.59c1.79,1.78,4.26,2.87,7,2.87s5.31-1.19,7.1-3.06h.04S431.73,16.63,431.73,16.63l-.06-.03c1.71-1.75,2.78-4.13,2.78-6.76"/>
  </g>
</svg>