<svg width="102" height="101" xmlns="http://www.w3.org/2000/svg" xmlns:xlink="http://www.w3.org/1999/xlink" xml:space="preserve" overflow="hidden"><g transform="translate(-4081 -1204)"><path d="M4141.27 1295.82C4141.27 1298.35 4139.2 1300.41 4136.64 1300.41L4127.36 1300.41C4124.8 1300.41 4122.73 1298.35 4122.73 1295.82L4122.73 1286.64C4122.73 1284.1 4124.8 1282.05 4127.36 1282.05L4136.64 1282.05C4139.2 1282.05 4141.27 1284.1 4141.27 1286.64 4141.27 1286.64 4141.27 1295.82 4141.27 1295.82ZM4136.64 1277.45 4127.36 1277.45C4122.24 1277.45 4118.09 1281.56 4118.09 1286.64L4118.09 1295.82C4118.09 1300.89 4122.24 1305 4127.36 1305L4136.64 1305C4141.76 1305 4145.91 1300.89 4145.91 1295.82L4145.91 1286.64C4145.91 1281.56 4141.76 1277.45 4136.64 1277.45M4178.36 1295.82C4178.36 1298.35 4176.29 1300.41 4173.73 1300.41L4164.46 1300.41C4161.9 1300.41 4159.82 1298.35 4159.82 1295.82L4159.82 1286.64C4159.82 1284.1 4161.9 1282.05 4164.46 1282.05L4173.73 1282.05C4176.29 1282.05 4178.36 1284.1 4178.36 1286.64 4178.36 1286.64 4178.36 1295.82 4178.36 1295.82ZM4173.73 1277.45 4164.46 1277.45C4159.33 1277.45 4155.18 1281.56 4155.18 1286.64L4155.18 1295.82C4155.18 1300.89 4159.33 1305 4164.46 1305L4173.73 1305C4178.85 1305 4183 1300.89 4183 1295.82L4183 1286.64C4183 1281.56 4178.85 1277.45 4173.73 1277.45M4104.18 1295.82C4104.18 1298.35 4102.1 1300.41 4099.54 1300.41L4090.27 1300.41C4087.72 1300.41 4085.64 1298.35 4085.64 1295.82L4085.64 1286.64C4085.64 1284.1 4087.72 1282.05 4090.27 1282.05L4099.54 1282.05C4102.1 1282.05 4104.18 1284.1 4104.18 1286.64 4104.18 1286.64 4104.18 1295.82 4104.18 1295.82ZM4099.54 1277.45 4090.27 1277.45C4085.15 1277.45 4081 1281.56 4081 1286.64L4081 1295.82C4081 1300.89 4085.15 1305 4090.27 1305L4099.54 1305C4104.67 1305 4108.82 1300.89 4108.82 1295.82L4108.82 1286.64C4108.82 1281.56 4104.67 1277.45 4099.54 1277.45M4094.91 1272.86C4096.19 1272.86 4097.23 1271.84 4097.23 1270.57L4097.23 1254.5 4129.68 1254.5 4129.68 1270.57C4129.68 1271.84 4130.72 1272.86 4132 1272.86 4133.28 1272.86 4134.32 1271.84 4134.32 1270.57L4134.32 1254.5 4166.77 1254.5 4166.77 1270.57C4166.77 1271.84 4167.81 1272.86 4169.09 1272.86 4170.37 1272.86 4171.41 1271.84 4171.41 1270.57L4171.41 1252.2C4171.41 1250.94 4170.37 1249.91 4169.09 1249.91L4134.32 1249.91 4134.32 1238.43C4134.32 1237.17 4133.28 1236.14 4132 1236.14 4130.72 1236.14 4129.68 1237.17 4129.68 1238.43L4129.68 1249.91 4094.91 1249.91C4093.63 1249.91 4092.59 1250.94 4092.59 1252.2L4092.59 1270.57C4092.59 1271.84 4093.63 1272.86 4094.91 1272.86M4122.73 1213.18C4122.73 1210.65 4124.8 1208.59 4127.36 1208.59L4136.64 1208.59C4139.2 1208.59 4141.27 1210.65 4141.27 1213.18L4141.27 1222.36C4141.27 1224.9 4139.2 1226.95 4136.64 1226.95L4127.36 1226.95C4124.8 1226.95 4122.73 1224.9 4122.73 1222.36 4122.73 1222.36 4122.73 1213.18 4122.73 1213.18ZM4127.36 1231.55 4136.64 1231.55C4141.76 1231.55 4145.91 1227.44 4145.91 1222.36L4145.91 1213.18C4145.91 1208.11 4141.76 1204 4136.64 1204L4127.36 1204C4122.24 1204 4118.09 1208.11 4118.09 1213.18L4118.09 1222.36C4118.09 1227.44 4122.24 1231.55 4127.36 1231.55" fill="#2B2B2B" fill-rule="evenodd"/></g></svg>