<svg width="96" height="96" xmlns="http://www.w3.org/2000/svg" xmlns:xlink="http://www.w3.org/1999/xlink" xml:space="preserve" overflow="hidden"><g transform="translate(-592 -312)"><path d="M660.212 342.059C658.953 330.88 648.87 322.838 637.69 324.097 627.375 325.259 619.583 333.992 619.6 344.373L621.6 344.373C621.604 339.149 623.828 334.173 627.718 330.686 631.618 327.165 636.849 325.5 642.066 326.12 652.147 327.278 659.381 336.388 658.223 346.469 657.511 352.668 653.703 358.081 648.109 360.845 642.466 363.745 638.933 369.571 638.971 375.915L639 381.015 641 380.987 640.971 375.916C640.93 370.33 644.034 365.196 649 362.638 656.731 358.858 661.228 350.604 660.212 342.059Z"/><path d="M639.919 389C639.145 388.974 638.395 389.267 637.843 389.81 637.29 390.357 636.994 391.113 637.029 391.891 637.007 392.676 637.308 393.435 637.862 393.991 638.398 394.549 639.145 394.855 639.919 394.832 640.716 394.85 641.486 394.539 642.047 393.972 642.617 393.432 642.932 392.675 642.913 391.89 642.945 391.111 642.635 390.357 642.065 389.825 641.488 389.275 640.716 388.978 639.919 389Z"/></g></svg>