<svg width="101" height="101" xmlns="http://www.w3.org/2000/svg" xmlns:xlink="http://www.w3.org/1999/xlink" xml:space="preserve" overflow="hidden"><g transform="translate(-1764 -2170)"><path d="M1820.78 2255.73 1836.86 2202.14 1858.3 2202.14C1858.3 2202.14 1820.78 2255.73 1820.78 2255.73ZM1814.5 2260.72 1796.92 2202.14 1832.08 2202.14C1832.08 2202.14 1814.5 2260.72 1814.5 2260.72ZM1770.7 2202.14 1792.14 2202.14 1808.22 2255.73C1808.22 2255.73 1770.7 2202.14 1770.7 2202.14ZM1794.76 2174.59 1803.91 2174.59 1792.44 2197.55 1771.8 2197.55C1771.8 2197.55 1794.76 2174.59 1794.76 2174.59ZM1819.98 2174.59 1831.46 2197.55 1797.54 2197.55 1809.02 2174.59C1809.02 2174.59 1819.98 2174.59 1819.98 2174.59ZM1834.24 2174.59 1857.2 2197.55 1836.56 2197.55 1825.09 2174.59C1825.09 2174.59 1834.24 2174.59 1834.24 2174.59ZM1865 2199.84C1865 2199.33 1864.8 2198.87 1864.51 2198.49L1864.54 2198.46 1864.4 2198.32C1864.34 2198.26 1864.29 2198.21 1864.22 2198.15L1837 2170.92 1836.96 2170.94C1836.54 2170.38 1835.91 2170 1835.16 2170L1793.84 2170C1793.09 2170 1792.46 2170.38 1792.04 2170.94L1792 2170.92 1764.78 2198.15C1764.71 2198.21 1764.66 2198.26 1764.6 2198.32L1764.46 2198.46 1764.49 2198.49C1764.2 2198.87 1764 2199.33 1764 2199.84 1764 2200.39 1764.22 2200.87 1764.54 2201.26L1764.51 2201.29 1812.71 2270.15 1812.74 2270.13C1813.16 2270.65 1813.78 2271 1814.5 2271 1815.22 2271 1815.84 2270.65 1816.26 2270.13L1816.29 2270.15 1864.49 2201.29 1864.46 2201.26C1864.78 2200.87 1865 2200.39 1865 2199.84" fill="#2B2B2B" fill-rule="evenodd"/></g></svg>