<svg width="96" height="96" xmlns="http://www.w3.org/2000/svg" xmlns:xlink="http://www.w3.org/1999/xlink" xml:space="preserve" overflow="hidden"><g transform="translate(-379 -445)"><path d="M414.931 489.728 413.517 491.142 423.782 501.408 441.483 483.707 440.069 482.293 423.782 498.58 414.931 489.728Z"/><path d="M457.532 466.9C446.915 466.042 437.02 461.18 429.853 453.3 428.5 451.731 426.132 451.556 424.563 452.908 424.423 453.029 424.292 453.16 424.171 453.3 417.005 461.18 407.108 466.037 396.491 466.887 394.516 467.078 393.014 468.746 393.03 470.73L393.03 480.413C393.03 501.476 406.385 520.742 424.921 532.663 426.193 533.486 427.83 533.486 429.102 532.663 447.639 520.742 460.993 501.486 460.993 480.423L460.993 470.742C461.012 468.757 459.508 467.087 457.532 466.9ZM458.993 480.426C458.993 499.611 447.415 518.511 428.021 530.983 427.408 531.382 426.616 531.382 426.003 530.983 406.609 518.51 395.03 499.606 395.03 480.415L395.03 470.732C395.012 469.789 395.715 468.988 396.652 468.882 407.778 468.001 418.149 462.911 425.652 454.648 425.992 454.249 426.485 454.014 427.008 454 427.534 454.014 428.03 454.249 428.374 454.648 435.878 462.91 446.248 468.003 457.374 468.892 458.311 468.997 459.015 469.799 458.997 470.742Z"/><path d="M401.03 474.4 401.03 480.418C401.03 496.823 410.693 513.118 427.012 524.445 443.33 513.112 452.993 496.823 452.993 480.425L452.993 474.4C443.276 472.854 434.236 468.465 427.011 461.786 419.788 468.467 410.747 472.857 401.03 474.4ZM450.993 480.428C450.993 495.658 442.055 511.107 427.012 521.993 411.969 511.1 403.03 495.652 403.03 480.415L403.03 476.075C411.901 474.369 420.17 470.366 427.01 464.466 433.852 470.367 442.121 474.372 450.993 476.081Z"/></g></svg>