<svg width="101" height="83" xmlns="http://www.w3.org/2000/svg" xmlns:xlink="http://www.w3.org/1999/xlink" xml:space="preserve" overflow="hidden"><defs><clipPath id="clip0"><rect x="604" y="1793" width="101" height="83"/></clipPath></defs><g clip-path="url(#clip0)" transform="translate(-604 -1793)"><path d="M695.816 1871.39 613.183 1871.39C610.649 1871.39 608.592 1869.32 608.592 1866.78 608.592 1864.23 610.649 1862.17 613.183 1862.17L695.816 1862.17C698.351 1862.17 700.408 1864.23 700.408 1866.78 700.408 1869.32 698.351 1871.39 695.816 1871.39M695.816 1857.56 613.183 1857.56C608.11 1857.56 604 1861.68 604 1866.78 604 1871.87 608.11 1876 613.183 1876L695.816 1876C700.89 1876 705 1871.87 705 1866.78 705 1861.68 700.89 1857.56 695.816 1857.56M613.183 1797.61 695.816 1797.61C698.351 1797.61 700.408 1799.67 700.408 1802.22 700.408 1804.77 698.351 1806.83 695.816 1806.83L613.183 1806.83C610.649 1806.83 608.592 1804.77 608.592 1802.22 608.592 1799.67 610.649 1797.61 613.183 1797.61M613.183 1811.44 695.816 1811.44C700.89 1811.44 705 1807.31 705 1802.22 705 1797.12 700.89 1793 695.816 1793L613.183 1793C608.11 1793 604 1797.12 604 1802.22 604 1807.31 608.11 1811.44 613.183 1811.44M695.816 1839.11 613.183 1839.11C610.649 1839.11 608.592 1837.05 608.592 1834.5 608.592 1831.95 610.649 1829.89 613.183 1829.89L695.816 1829.89C698.351 1829.89 700.408 1831.95 700.408 1834.5 700.408 1837.05 698.351 1839.11 695.816 1839.11M695.816 1825.28 613.183 1825.28C608.11 1825.28 604 1829.4 604 1834.5 604 1839.59 608.11 1843.72 613.183 1843.72L695.816 1843.72C700.89 1843.72 705 1839.59 705 1834.5 705 1829.4 700.89 1825.28 695.816 1825.28" fill="#2B2B2B" fill-rule="evenodd"/></g></svg>