<svg width="96" height="96" xmlns="http://www.w3.org/2000/svg" xmlns:xlink="http://www.w3.org/1999/xlink" xml:space="preserve" overflow="hidden"><g transform="translate(-372 -232)"><path d="M446.5 270.411C447.209 269.178 447.779 267.87 448.2 266.511L452.6 264.311 452.6 259.311 448.2 257.111C447.832 255.749 447.295 254.439 446.6 253.211L448.2 248.511 444.6 244.911 439.9 246.511C438.673 245.812 437.362 245.271 436 244.9L433.8 240.5 428.8 240.5 426.6 244.9C425.238 245.268 423.928 245.805 422.7 246.5L418 244.9 414.4 248.5 416 253.2C415.305 254.428 414.768 255.738 414.4 257.1L410 259.3 410 264.3 414.4 266.5C414.768 267.862 415.306 269.172 416 270.4L414.4 275.1 417.9 278.6 422.6 277C423.828 277.695 425.138 278.232 426.5 278.6L428.7 283 433.7 283 435.9 278.6C437.262 278.232 438.572 277.695 439.8 277L444.5 278.6 448.1 275.1ZM444.606 271.055 445.8 274.56 443.985 276.325 440.445 275.119 439.581 274.825 438.792 275.285C437.709 275.897 436.553 276.369 435.351 276.69L434.505 276.932 434.111 277.719 432.464 281.019 429.939 281.019 428.292 277.719 427.898 276.932 427.052 276.69C425.85 276.369 424.693 275.897 423.61 275.285L422.822 274.825 421.958 275.119 418.436 276.319 416.696 274.579 417.896 271.056 418.19 270.192 417.73 269.404C417.119 268.32 416.649 267.163 416.33 265.961L416.088 265.115 415.302 264.722 412 263.073 412 260.544 415.3 258.9 416.086 258.506 416.328 257.66C416.647 256.458 417.117 255.301 417.728 254.218L418.188 253.429 417.894 252.566 416.694 249.042 418.534 247.202 422.056 248.402 422.92 248.702 423.708 248.241C424.792 247.631 425.948 247.16 427.15 246.841L428 246.585 428.394 245.798 430.041 242.498 432.569 242.498 434.216 245.798 434.61 246.585 435.455 246.827C436.657 247.146 437.814 247.617 438.897 248.227L439.686 248.688 440.55 248.388 444.071 247.188 445.911 249.028 444.711 252.552 444.417 253.415 444.877 254.204C445.489 255.287 445.961 256.444 446.282 257.646L446.523 258.492 447.31 258.886 450.61 260.534 450.61 263.063 447.31 264.711 446.545 265.094 446.293 265.912C445.917 267.127 445.408 268.297 444.776 269.4L444.316 270.188Z"/><path d="M387.4 295.618 387.4 300.618 391.8 302.818C392.168 304.18 392.705 305.49 393.4 306.718L391.9 311.418 395.4 314.918 400.1 313.418C401.328 314.113 402.638 314.65 404 315.018L406.2 319.418 411.2 319.418 413.4 315.018C414.762 314.65 416.072 314.113 417.3 313.418L422 315.018 425.5 311.418 424 306.818C424.695 305.59 425.232 304.28 425.6 302.918L430 300.718 430 295.718 425.6 293.518C425.232 292.156 424.695 290.846 424 289.618L425.6 284.918 422 281.318 417.3 282.918C416.064 282.24 414.756 281.704 413.4 281.318L411.2 276.918 406.2 276.918 404 281.318C402.638 281.686 401.328 282.223 400.1 282.918L395.4 281.318 391.9 284.818 393.4 289.518C392.723 290.754 392.186 292.062 391.8 293.418ZM393.46 294.818 393.712 294C394.056 292.792 394.531 291.624 395.128 290.519L395.576 289.75 395.305 288.903 394.176 285.362 395.934 283.603 399.456 284.803 400.32 285.098 401.108 284.638C402.191 284.026 403.348 283.553 404.55 283.233L405.4 283 405.794 282.213 407.441 278.913 409.969 278.913 411.616 282.213 411.999 282.979 412.817 283.23C414.025 283.575 415.192 284.05 416.297 284.647L417.086 285.107 417.95 284.812 421.471 283.612 423.311 285.453 422.111 288.976 421.817 289.839 422.277 290.628C422.889 291.712 423.361 292.868 423.682 294.071L423.923 294.916 424.71 295.31 428 296.954 428 299.483 424.7 301.131 423.913 301.525 423.672 302.37C423.351 303.572 422.879 304.729 422.267 305.813L421.815 306.588 422.093 307.441 423.219 310.894 421.45 312.722 417.95 311.529 417.086 311.235 416.297 311.695C415.213 312.308 414.055 312.78 412.852 313.1L412.006 313.342 411.613 314.129 409.966 317.429 407.438 317.429 405.791 314.129 405.397 313.342 404.551 313.1C403.349 312.78 402.192 312.307 401.109 311.695L400.341 311.247 399.493 311.517 395.954 312.647 394.177 310.87 395.306 307.329 395.577 306.482 395.129 305.713C394.517 304.63 394.045 303.473 393.724 302.271L393.482 301.425 392.696 301.031 389.396 299.383 389.396 296.854 392.696 295.206Z"/><path d="M431.3 254.306C427.158 254.306 423.8 257.664 423.8 261.806 423.8 265.948 427.158 269.306 431.3 269.306 435.442 269.306 438.8 265.948 438.8 261.806 438.769 257.677 435.429 254.337 431.3 254.306ZM431.3 267.306C428.264 267.302 425.804 264.842 425.8 261.806 425.84 258.785 428.279 256.346 431.3 256.306 434.336 256.31 436.796 258.77 436.8 261.806 436.762 264.828 434.322 267.27 431.3 267.31Z"/><path d="M408.7 305.721C412.842 305.721 416.2 302.363 416.2 298.221 416.2 294.079 412.842 290.721 408.7 290.721 404.558 290.721 401.2 294.079 401.2 298.221 401.195 302.358 404.545 305.716 408.682 305.721 408.688 305.721 408.694 305.721 408.7 305.721ZM408.7 292.716C411.738 292.716 414.2 295.178 414.2 298.216 414.2 301.254 411.738 303.716 408.7 303.716 405.662 303.716 403.2 301.254 403.2 298.216 403.204 295.18 405.664 292.72 408.7 292.716Z"/></g></svg>