<svg width="102" height="93" xmlns="http://www.w3.org/2000/svg" xmlns:xlink="http://www.w3.org/1999/xlink" xml:space="preserve" overflow="hidden"><g transform="translate(-797 -1401)"><path d="M878.137 1454.47C874.293 1454.47 871.181 1451.35 871.181 1447.5 871.181 1443.65 874.293 1440.53 878.137 1440.53 881.976 1440.53 885.093 1443.65 885.093 1447.5 885.093 1451.35 881.976 1454.47 878.137 1454.47M896.681 1445.18 889.494 1445.18C888.422 1439.87 883.742 1435.88 878.137 1435.88 872.527 1435.88 867.852 1439.87 866.78 1445.18L799.319 1445.18C798.039 1445.18 797 1446.22 797 1447.5 797 1448.78 798.039 1449.82 799.319 1449.82L866.78 1449.82C867.852 1455.13 872.527 1459.12 878.137 1459.12 883.742 1459.12 888.422 1455.13 889.494 1449.82L896.681 1449.82C897.961 1449.82 899 1448.78 899 1447.5 899 1446.22 897.961 1445.18 896.681 1445.18M822.5 1405.65C826.344 1405.65 829.456 1408.78 829.456 1412.63 829.456 1416.48 826.344 1419.6 822.5 1419.6 818.656 1419.6 815.544 1416.48 815.544 1412.63 815.544 1408.78 818.656 1405.65 822.5 1405.65M799.319 1414.95 811.143 1414.95C812.215 1420.26 816.895 1424.25 822.5 1424.25 828.105 1424.25 832.785 1420.26 833.857 1414.95L896.681 1414.95C897.961 1414.95 899 1413.91 899 1412.63 899 1411.34 897.961 1410.3 896.681 1410.3L833.857 1410.3C832.785 1405 828.105 1401 822.5 1401 816.895 1401 812.215 1405 811.143 1410.3L799.319 1410.3C798.039 1410.3 797 1411.34 797 1412.63 797 1413.91 798.039 1414.95 799.319 1414.95M841.044 1489.35C837.205 1489.35 834.093 1486.22 834.093 1482.37 834.093 1478.52 837.205 1475.4 841.044 1475.4 844.888 1475.4 848 1478.52 848 1482.37 848 1486.22 844.888 1489.35 841.044 1489.35M896.681 1480.05 852.401 1480.05C851.329 1474.74 846.654 1470.75 841.044 1470.75 835.439 1470.75 830.764 1474.74 829.687 1480.05L799.319 1480.05C798.039 1480.05 797 1481.09 797 1482.37 797 1483.66 798.039 1484.7 799.319 1484.7L829.687 1484.7C830.764 1490 835.439 1494 841.044 1494 846.654 1494 851.329 1490 852.401 1484.7L896.681 1484.7C897.961 1484.7 899 1483.66 899 1482.37 899 1481.09 897.961 1480.05 896.681 1480.05" fill="#2B2B2B" fill-rule="evenodd"/></g></svg>