<svg width="102" height="102" xmlns="http://www.w3.org/2000/svg" xmlns:xlink="http://www.w3.org/1999/xlink" xml:space="preserve" overflow="hidden"><defs><clipPath id="clip0"><rect x="797" y="1010" width="102" height="102"/></clipPath></defs><g clip-path="url(#clip0)" transform="translate(-797 -1010)"><path d="M894.363 1033.18 857.274 1033.18C855.995 1033.18 854.956 1034.22 854.956 1035.5 854.956 1036.78 855.995 1037.82 857.274 1037.82L894.363 1037.82 894.363 1047.09 857.274 1047.09C855.995 1047.09 854.956 1048.13 854.956 1049.41 854.956 1050.69 855.995 1051.73 857.274 1051.73L885.093 1051.73 885.093 1107.36 810.907 1107.36 810.907 1051.73 838.726 1051.73C840.005 1051.73 841.044 1050.69 841.044 1049.41 841.044 1048.13 840.005 1047.09 838.726 1047.09L801.637 1047.09 801.637 1037.82 838.726 1037.82C840.005 1037.82 841.044 1036.78 841.044 1035.5 841.044 1034.22 840.005 1033.18 838.726 1033.18L801.637 1033.18C799.078 1033.18 797 1035.26 797 1037.82L797 1047.09C797 1049.65 799.078 1051.73 801.637 1051.73L806.275 1051.73 806.275 1107.36C806.275 1109.92 808.348 1112 810.907 1112L885.093 1112C887.652 1112 889.726 1109.92 889.726 1107.36L889.726 1051.73 894.363 1051.73C896.922 1051.73 899 1049.65 899 1047.09L899 1037.82C899 1035.26 896.922 1033.18 894.363 1033.18M834.093 1028.54C834.731 1028.54 835.311 1028.28 835.732 1027.87L845.681 1017.91 845.681 1081.86 845.681 1081.86C845.681 1083.14 846.72 1084.18 848 1084.18 849.28 1084.18 850.319 1083.14 850.319 1081.86L850.319 1017.91 860.268 1027.87C860.689 1028.28 861.269 1028.54 861.907 1028.54 863.187 1028.54 864.226 1027.51 864.226 1026.23 864.226 1025.59 863.966 1025.01 863.55 1024.59L849.639 1010.68C849.218 1010.26 848.638 1010 848 1010 847.363 1010 846.782 1010.26 846.361 1010.68L832.45 1024.59C832.034 1025.01 831.775 1025.59 831.775 1026.23 831.775 1027.51 832.813 1028.54 834.093 1028.54" fill="#2B2B2B" fill-rule="evenodd"/></g></svg>