<?xml version="1.0" encoding="UTF-8"?>
<svg id="Ebene_2" data-name="Ebene 2" xmlns="http://www.w3.org/2000/svg" viewBox="0 0 100.62 100.4">
  <defs>
    <style>
      .cls-1 {
        fill: #c8c8c8;
        fill-rule: evenodd;
        stroke-width: 0px;
      }
    </style>
  </defs>
  <g id="Ebene_1-2" data-name="Ebene 1">
    <path class="cls-1" d="M52.24,82.14c1.26,0,2.29-1.02,2.29-2.27s-1.03-2.27-2.29-2.27-2.29,1.02-2.29,2.27,1.03,2.27,2.29,2.27M81.93,86.56h-17.79v-29.34c0-1.26-1.02-2.29-2.29-2.29h-23.1c-1.26,0-2.29,1.02-2.29,2.29v29.34h-18.78v-48.97L49.82,5.83l32.12,31.76v48.97ZM81.93,96.45h-18.78v-4.94h18.78v4.94ZM59.2,95.46h-18.78v-36.57h18.78v36.57ZM36.47,96.45h-18.78v-4.94h18.78v4.94ZM68.1,9.48h8.89v17.21l-8.89-9.08v-8.13ZM99.59,48.78l-17.65-17.48V6.81c0-1.25-1.03-2.27-2.29-2.27h-13.21c-1.26,0-2.29,1.03-2.29,2.29v5.84L52.02.67c-.42-.41-.99-.67-1.62-.67s-1.2.25-1.62.67L.67,48.3c-.42.41-.67.98-.67,1.6,0,1.26,1.03,2.27,2.29,2.27.63,0,1.2-.25,1.62-.67l9.83-9.74v56.36c0,1.25,1.02,2.27,2.27,2.27h68.59c1.25,0,2.27-1.02,2.27-2.27v-55.88l9.83,9.74c.42.41.99.67,1.62.67,1.26,0,2.29-1.01,2.29-2.27,0-.62-.26-1.19-.67-1.6"/>
  </g>
</svg>