<?xml version="1.0" encoding="UTF-8"?>
<svg id="Ebene_2" data-name="Ebene 2" xmlns="http://www.w3.org/2000/svg" viewBox="0 0 144.5 143.08">
  <defs>
    <style>
      .cls-1 {
        fill: #2b2b2b;
        fill-rule: evenodd;
        stroke-width: 0px;
      }
    </style>
  </defs>
  <g id="Ebene_1-2" data-name="Ebene 1">
    <path class="cls-1" d="M72.25,55.28c-9.07,0-16.42,7.28-16.42,16.26s7.35,16.26,16.42,16.26,16.42-7.28,16.42-16.26-7.35-16.26-16.42-16.26M75.61,136.55v-22.74c-.07-1.8-1.55-3.24-3.36-3.24s-3.29,1.44-3.72,3.24v22.6c-33.21-1.64-60.12-28.3-61.8-60.77h22.82c1.83-.84,3.29-2.29,3.29-4.09s-1.46-3.26-3.29-2.99H6.73c1.67-33.57,28.59-60.23,61.8-61.88v22.6c.44,1.8,1.91,3.24,3.72,3.24s3.29-1.44,3.36-3.24V6.67c33.57,1.64,60.49,28.3,62.16,61.88h-22.82c-1.83-.27-3.29,1.19-3.29,2.99s1.46,3.26,3.29,4.09h22.82c-1.67,32.47-28.59,59.13-62.23,60.77M72.25,0h0C32.34,0,0,32.03,0,71.54s32.34,71.54,72.25,71.54,72.25-32.03,72.25-71.54S112.15,0,72.25,0"/>
  </g>
</svg>