<svg width="96" height="96" xmlns="http://www.w3.org/2000/svg" xmlns:xlink="http://www.w3.org/1999/xlink" xml:space="preserve" overflow="hidden"><g transform="translate(-887 -545)"><path d="M958.3 606.9C956.1 604.7 952.5 604.8 949.8 606.9L945.6 602.7C956.5 590.9 955.8 572.6 944 561.7 932.2 550.8 914 551.6 903.1 563.4 892.2 575.2 893 593.5 904.7 604.4 915.9 614.8 933.2 614.7 944.3 604.2L948.5 608.4C947.6 609.5 947.1 610.9 946.9 612.3 946.7 614 947.3 615.7 948.5 616.9L962.6 631C963.7 632 965.1 632.6 966.6 632.6 968.6 632.6 970.4 631.8 971.8 630.4 973.1 629.2 973.9 627.5 974 625.7 974.2 624 973.6 622.3 972.4 621.1L958.3 606.9ZM905.4 602.1C894.9 591.6 894.9 574.5 905.4 563.9 915.9 553.3 933 553.4 943.6 563.9 954.2 574.4 954.1 591.5 943.6 602.1 938.5 607.2 931.7 610 924.5 610 917.4 610 910.5 607.2 905.4 602.1ZM970.3 628.8C968.4 630.7 965.5 631 963.9 629.4L949.9 615.4C949.1 614.6 948.8 613.5 948.9 612.4 949 611.1 949.6 609.9 950.6 609 951.6 608 953 607.4 954.4 607.3 955.4 607.3 956.3 607.6 957 608.3L971 622.4C971.8 623.2 972.1 624.3 972 625.4 971.8 626.7 971.3 627.9 970.3 628.8 970.3 628.8 970.3 628.8 970.3 628.8Z"/></g></svg>