<?xml version="1.0" encoding="UTF-8"?>
<svg id="Ebene_2" data-name="Ebene 2" xmlns="http://www.w3.org/2000/svg" viewBox="0 0 101 87">
  <defs>
    <style>
      .cls-1 {
        fill: #2b2b2b;
        fill-rule: evenodd;
        stroke-width: 0px;
      }
    </style>
  </defs>
  <g id="Ebene_1-2" data-name="Ebene 1">
    <path class="cls-1" d="M62.76,82.5l-3.7-.99c3.15-2.49,5.21-6.28,5.21-10.61,0-5.64-3.42-10.48-8.31-12.59l-1.24,4.52c2.93,1.53,4.96,4.55,4.96,8.08,0,2.86-1.34,5.38-3.41,7.04l1.23-4.53c.14-.56.08-1.18-.24-1.74-.63-1.09-2.03-1.47-3.13-.84-.55.32-.92.82-1.07,1.39l-2.52,9.37c-.15.56-.09,1.19.23,1.73.29.51.76.85,1.29,1.02l-.04.12c.08,0,.15-.03.22-.04l9.32,2.49c.57.15,1.2.09,1.75-.23,1.1-.63,1.47-2.03.84-3.13-.32-.54-.83-.91-1.39-1.06M87.13,29.32c.04-.62.1-1.24.1-1.87,0-15.16-12.34-27.45-27.55-27.45-10.59,0-19.77,5.96-24.38,14.69-1.7-.62-3.54-.97-5.46-.97-8.87,0-16.07,7.17-16.07,16.01,0,1.15.13,2.27.36,3.35C5.92,35.81,0,43.52,0,52.61c0,11.37,9.25,20.59,20.66,20.59h9.18c1.27,0,2.3-1.02,2.3-2.29s-1.03-2.29-2.3-2.29h-9.18c-8.86,0-16.07-7.18-16.07-16.01,0-6.9,4.42-13,10.99-15.18l3.9-1.29-.86-4c-.17-.8-.26-1.61-.26-2.4,0-6.3,5.15-11.44,11.48-11.44,1.31,0,2.62.24,3.9.7l3.76,1.36,1.86-3.53c4-7.55,11.78-12.25,20.32-12.25,12.66,0,22.96,10.26,22.96,22.87,0,.39-.04.79-.06,1.18l-.03.39-.21,3.22,2.97,1.28c6.74,2.9,11.1,9.49,11.1,16.8,0,10.09-8.24,18.3-18.36,18.3h-6.89c-1.27,0-2.3,1.02-2.3,2.29s1.03,2.29,2.3,2.29h6.89c12.67,0,22.95-10.24,22.95-22.87,0-9.41-5.71-17.49-13.87-21M50.37,58.54c-.29-.5-.74-.83-1.25-1l.06-.22c-.16.02-.31.06-.47.09l-9.14-2.44h0c-.56-.15-1.19-.09-1.74.23-1.1.63-1.47,2.03-.84,3.12.32.55.83.92,1.4,1.07l3.53.94c-3.15,2.48-5.19,6.26-5.19,10.58,0,5.72,3.5,10.61,8.49,12.67l1.23-4.49c-3.03-1.5-5.13-4.57-5.13-8.17,0-2.95,1.43-5.54,3.61-7.2l-1.28,4.76c-.15.56-.08,1.19.23,1.74.63,1.09,2.04,1.47,3.14.84.54-.32.91-.82,1.06-1.39l2.53-9.37c.15-.57.08-1.19-.24-1.74"/>
  </g>
</svg>